<svg id="add" viewBox="0 0 24 24">
  <title>Add</title>
  <path d="M21.672546656380405,-0.028771932949325674L2.64085525316284,-0.028771932949325674C1.2378464456315896,-0.028771932949325674,0.10067088584298745,1.113326464760462,0.10067088584298745,2.511412434370982L0.10067088584298745,21.543103837587978C0.10067088584298745,22.94611264511957,1.242769283552775,24.083288204907944,2.64085525316284,24.083288204907944L21.672546656380405,24.083288204907944C23.075555463911883,24.083288204907944,24.212731023700258,22.941189807198157,24.212731023700258,21.543103837587978L24.212731023700258,2.511412434370982C24.212731023700258,1.113326464760462,23.070632625990697,-0.028771932949325674,21.672546656380405,-0.028771932949325674ZZM23.006635733015514,21.543103837587978C23.006635733015514,22.276606687841195,22.40604950663362,22.877192914223087,21.672546656380405,22.877192914223087L2.64085525316284,22.877192914223087C1.9073524029098508,22.877192914223087,1.3067661765277307,22.276606687841195,1.3067661765277307,21.543103837587978L1.3067661765277307,2.511412434370982C1.3067661765277307,1.7779095841175376,1.9073524029098508,1.1773233577355313,2.64085525316284,1.1773233577355313L21.672546656380405,1.1773233577355313C22.40604950663362,1.1773233577355313,23.006635733015514,1.7779095841175376,23.006635733015514,2.511412434370982L23.006635733015514,21.543103837587978ZZ"></path>
  <path d="M16.710326031847558,11.42667190959753L12.757287181153629,11.42667190959753L12.757287181153629,7.473633058903374C12.757287181153629,7.138880080264244,12.486531095489568,6.86812399460041,12.151778116850778,6.86812399460041C11.817025138211307,6.86812399460041,11.546269052547245,7.138880080264244,11.546269052547245,7.473633058903374L11.546269052547245,11.42667190959753L7.593230201853316,11.42667190959753C7.2584772232143,11.42667190959753,6.987721137550238,11.697427995261592,6.987721137550238,12.027258135979537C6.987721137550238,12.362011114618326,7.2584772232143,12.632767200282387,7.593230201853316,12.632767200282387L11.546269052547245,12.632767200282387L11.546269052547245,16.585806050976544C11.546269052547245,16.920559029615447,11.817025138211307,17.191315115279508,12.151778116850778,17.191315115279508C12.486531095489568,17.191315115279508,12.757287181153629,16.920559029615447,12.757287181153629,16.585806050976544L12.757287181153629,12.632767200282387L16.710326031847558,12.632767200282387C17.045079010486802,12.632767200282387,17.315835096150636,12.362011114618326,17.315835096150636,12.027258135979537C17.315835096150636,11.692505157340292,17.045079010486802,11.42667190959753,16.710326031847558,11.42667190959753ZZ"></path>
</svg>
