<svg xmlns="http://www.w3.org/2000/svg" width="8mm" height="8mm" viewBox="0 0 8 8"><path d="M46.836 2.123a.743.743 0 0 0-.739.738v6.29c0 .404.335.74.739.74h6.289a.745.745 0 0 0 .738-.74V2.86a.743.743 0 0 0-.738-.738zm0 .6h6.289c.082 0 .139.056.139.138v6.29a.132.132 0 0 1-.139.138h-6.289a.132.132 0 0 1-.139-.138V2.86c0-.082.057-.138.139-.138m3.145 1.591a.25.25 0 0 0-.25.25v1.192h-1.192a.25.25 0 0 0-.25.25.25.25 0 0 0 .25.25h1.192v1.191a.25.25 0 0 0 .25.25.25.25 0 0 0 .25-.25V6.256h1.19a.25.25 0 0 0 .25-.25.25.25 0 0 0-.25-.25h-1.19V4.565a.25.25 0 0 0-.25-.25" style="color:#000;fill:#000;stroke-linejoin:round;-inkscape-stroke:none" transform="matrix(.96763 0 0 .96763 -44.362 -1.812)"/></svg>