<?xml version="1.0" encoding="UTF-8" standalone="no"?>
<!-- Created with Inkscape (http://www.inkscape.org/) -->

<svg
   width="8mm"
   height="8mm"
   viewBox="0 0 8 8"
   version="1.1"
   id="svg1"
   sodipodi:docname="area_flat.svg"
   inkscape:version="1.3.2 (091e20ef0f, 2023-11-25)"
   xmlns:inkscape="http://www.inkscape.org/namespaces/inkscape"
   xmlns:sodipodi="http://sodipodi.sourceforge.net/DTD/sodipodi-0.dtd"
   xmlns="http://www.w3.org/2000/svg"
   xmlns:svg="http://www.w3.org/2000/svg">
  <sodipodi:namedview
     id="namedview1"
     pagecolor="#ffffff"
     bordercolor="#000000"
     borderopacity="0.25"
     inkscape:showpageshadow="2"
     inkscape:pageopacity="0.0"
     inkscape:pagecheckerboard="0"
     inkscape:deskcolor="#d1d1d1"
     inkscape:document-units="mm"
     inkscape:zoom="10.65958"
     inkscape:cx="-4.878241"
     inkscape:cy="21.952084"
     inkscape:window-width="2560"
     inkscape:window-height="1515"
     inkscape:window-x="0"
     inkscape:window-y="1415"
     inkscape:window-maximized="1"
     inkscape:current-layer="layer1" />
  <defs
     id="defs1" />
  <g
     inkscape:label="Capa 1"
     inkscape:groupmode="layer"
     id="layer1"
     transform="translate(-192.54825,-104.17665)">
    <path
       style="color:#000000;fill:#000000;stroke-linecap:round;stroke-linejoin:round;-inkscape-stroke:none"
       d="m 194.19922,104.97852 c -0.46346,0 -0.8457,0.38419 -0.8457,0.84765 v 1.20703 a 0.3144795,0.3144795 0 0 0 0.31445,0.31446 0.3144795,0.3144795 0 0 0 0.31445,-0.31446 v -1.20703 c 0,-0.12591 0.0909,-0.21875 0.2168,-0.21875 h 1.19922 a 0.3144795,0.3144795 0 0 0 0.31445,-0.31445 0.3144795,0.3144795 0 0 0 -0.31445,-0.31445 z m 3.5039,0 a 0.3144795,0.3144795 0 0 0 -0.31445,0.31445 0.3144795,0.3144795 0 0 0 0.31445,0.31445 h 1.19336 c 0.1259,0 0.2168,0.0928 0.2168,0.21875 v 1.21289 a 0.3144795,0.3144795 0 0 0 0.31445,0.31446 0.3144795,0.3144795 0 0 0 0.31446,-0.31446 v -1.21289 c 0,-0.46345 -0.38224,-0.84765 -0.84571,-0.84765 z m -4.03515,4.03125 a 0.3144795,0.3144795 0 0 0 -0.31445,0.31445 v 1.19726 c 0,0.46346 0.38224,0.84571 0.8457,0.84571 h 1.20898 a 0.3144795,0.3144795 0 0 0 0.31446,-0.31446 0.3144795,0.3144795 0 0 0 -0.31446,-0.31445 h -1.20898 c -0.12588,0 -0.2168,-0.0909 -0.2168,-0.2168 v -1.19726 a 0.3144795,0.3144795 0 0 0 -0.31445,-0.31445 z m 5.75976,0 a 0.3144795,0.3144795 0 0 0 -0.31445,0.31445 v 1.19726 c 0,0.12591 -0.0909,0.2168 -0.2168,0.2168 a 0.31451095,0.31451095 0 0 0 -0.006,0 c 0,0 -0.83491,0.0133 -1.17382,0 a 0.3144795,0.3144795 0 0 0 -0.32618,0.30274 0.3144795,0.3144795 0 0 0 0.30079,0.32617 c 0.3907,0.0154 1.19723,1.4e-4 1.20507,0 0.46347,0 0.84571,-0.38225 0.84571,-0.84571 v -1.19726 a 0.3144795,0.3144795 0 0 0 -0.31446,-0.31445 z"
       id="path451-1" />
  </g>
</svg>
