<svg xmlns="http://www.w3.org/2000/svg" viewBox="0 0 8 8">
  <path d="M194.2 104.979a.85.85 0 0 0-.846.847v1.207a.314.314 0 0 0 .314.315.314.314 0 0 0 .314-.315v-1.207c0-.126.091-.219.217-.219h1.2a.314.314 0 0 0 .314-.314.314.314 0 0 0-.315-.314zm3.503 0a.314.314 0 0 0-.314.314.314.314 0 0 0 .314.314h1.193a.21.21 0 0 1 .217.22v1.212a.314.314 0 0 0 .315.315.314.314 0 0 0 .314-.315v-1.213a.85.85 0 0 0-.846-.847zm-4.035 4.03a.314.314 0 0 0-.314.315v1.197a.85.85 0 0 0 .845.846h1.21a.314.314 0 0 0 .314-.314.314.314 0 0 0-.315-.315H194.2a.21.21 0 0 1-.217-.217v-1.197a.314.314 0 0 0-.314-.314m5.76 0a.314.314 0 0 0-.315.315v1.197a.21.21 0 0 1-.217.217h-.006s-.834.014-1.173 0a.314.314 0 0 0-.327.303.314.314 0 0 0 .301.326c.391.016 1.198 0 1.205 0a.85.85 0 0 0 .846-.846v-1.197a.314.314 0 0 0-.314-.314z" transform="translate(-192.548 -104.177)"/>
</svg>
