<?xml version="1.0" encoding="UTF-8" standalone="no"?>
<!-- Created with Inkscape (http://www.inkscape.org/) -->

<svg
   width="9.7502365mm"
   height="9.7502365mm"
   viewBox="0 0 9.7502365 9.7502365"
   version="1.1"
   id="svg1"
   sodipodi:docname="area_flat.svg"
   inkscape:version="1.3.2 (091e20ef0f, 2023-11-25)"
   xmlns:inkscape="http://www.inkscape.org/namespaces/inkscape"
   xmlns:sodipodi="http://sodipodi.sourceforge.net/DTD/sodipodi-0.dtd"
   xmlns="http://www.w3.org/2000/svg"
   xmlns:svg="http://www.w3.org/2000/svg">
  <sodipodi:namedview
     id="namedview1"
     pagecolor="#ffffff"
     bordercolor="#000000"
     borderopacity="0.25"
     inkscape:showpageshadow="2"
     inkscape:pageopacity="0.0"
     inkscape:pagecheckerboard="0"
     inkscape:deskcolor="#d1d1d1"
     inkscape:document-units="mm"
     inkscape:zoom="9.3493911"
     inkscape:cx="8.7706247"
     inkscape:cy="23.103109"
     inkscape:window-width="2560"
     inkscape:window-height="1515"
     inkscape:window-x="0"
     inkscape:window-y="1415"
     inkscape:window-maximized="1"
     inkscape:current-layer="layer1" />
  <defs
     id="defs1" />
  <g
     inkscape:label="Capa 1"
     inkscape:groupmode="layer"
     id="layer1"
     transform="translate(-172.52985,-50.20407)">
    <path
       style="color:#000000;fill:#000000;stroke-linecap:round;stroke-linejoin:round;-inkscape-stroke:none"
       d="m 175.05664,51.880859 c -0.46346,0 -0.8457,0.384193 -0.8457,0.847657 v 1.207031 a 0.3144795,0.3144795 0 0 0 0.31445,0.314453 0.3144795,0.3144795 0 0 0 0.31445,-0.314453 v -1.207031 c 0,-0.125916 0.0909,-0.21875 0.2168,-0.21875 h 1.19922 a 0.3144795,0.3144795 0 0 0 0.31445,-0.314454 0.3144795,0.3144795 0 0 0 -0.31445,-0.314453 z m 3.50391,0 a 0.3144795,0.3144795 0 0 0 -0.31446,0.314453 0.3144795,0.3144795 0 0 0 0.31446,0.314454 h 1.19336 c 0.12589,0 0.21679,0.09283 0.21679,0.21875 v 1.21289 a 0.3144795,0.3144795 0 0 0 0.31446,0.314453 0.3144795,0.3144795 0 0 0 0.31445,-0.314453 v -1.21289 c 0,-0.463457 -0.38224,-0.847657 -0.8457,-0.847657 z m -4.03516,4.03125 a 0.3144795,0.3144795 0 0 0 -0.31445,0.314453 v 1.197266 c 0,0.463459 0.38224,0.845703 0.8457,0.845703 h 1.20898 a 0.3144795,0.3144795 0 0 0 0.31446,-0.314453 0.3144795,0.3144795 0 0 0 -0.31446,-0.314453 h -1.20898 c -0.12588,0 -0.2168,-0.0909 -0.2168,-0.216797 v -1.197266 a 0.3144795,0.3144795 0 0 0 -0.31445,-0.314453 z m 5.75977,0 a 0.3144795,0.3144795 0 0 0 -0.31446,0.314453 v 1.197266 c 0,0.125907 -0.0909,0.216797 -0.21679,0.216797 a 0.31451095,0.31451095 0 0 0 -0.006,0 c 0,0 -0.83687,0.01334 -1.17578,0 a 0.3144795,0.3144795 0 0 0 -0.32618,0.302734 0.3144795,0.3144795 0 0 0 0.30274,0.326172 c 0.39134,0.01541 1.19982,9.8e-5 1.20508,0 0.46346,0 0.8457,-0.382251 0.8457,-0.845703 v -1.197266 a 0.3144795,0.3144795 0 0 0 -0.31445,-0.314453 z"
       id="path159-3" />
  </g>
</svg>
