<?xml version="1.0" encoding="UTF-8" standalone="no"?>
<!-- Created with Inkscape (http://www.inkscape.org/) -->

<svg
   width="9.7502365mm"
   height="9.7502365mm"
   viewBox="0 0 9.7502365 9.7502365"
   version="1.1"
   id="svg1"
   sodipodi:docname="coco_flat.svg"
   inkscape:version="1.3.2 (091e20ef0f, 2023-11-25)"
   xmlns:inkscape="http://www.inkscape.org/namespaces/inkscape"
   xmlns:sodipodi="http://sodipodi.sourceforge.net/DTD/sodipodi-0.dtd"
   xmlns="http://www.w3.org/2000/svg"
   xmlns:svg="http://www.w3.org/2000/svg">
  <sodipodi:namedview
     id="namedview1"
     pagecolor="#ffffff"
     bordercolor="#000000"
     borderopacity="0.25"
     inkscape:showpageshadow="2"
     inkscape:pageopacity="0.0"
     inkscape:pagecheckerboard="0"
     inkscape:deskcolor="#d1d1d1"
     inkscape:document-units="mm"
     inkscape:zoom="12.272049"
     inkscape:cx="1.9556636"
     inkscape:cy="26.075514"
     inkscape:window-width="2560"
     inkscape:window-height="1515"
     inkscape:window-x="0"
     inkscape:window-y="1415"
     inkscape:window-maximized="1"
     inkscape:current-layer="layer1" />
  <defs
     id="defs1" />
  <g
     inkscape:label="Capa 1"
     inkscape:groupmode="layer"
     id="layer1"
     transform="translate(-172.52985,-50.20407)">
    <path
       id="path362-8"
       style="color:#000000;fill:#000000;stroke-linecap:round;stroke-linejoin:round;-inkscape-stroke:none"
       d="m 175.02789,51.745578 c -0.0293,0.01989 -0.0552,0.03899 -0.0817,0.05943 -0.31628,0.243969 -0.59605,0.58923 -0.81339,1.056266 -0.27671,0.594651 -0.45589,1.180938 -0.50281,1.752348 l -0.10077,-5.17e-4 c -0.13315,-2.52e-4 -0.24147,0.107147 -0.24236,0.240296 -2.5e-4,0.133154 0.10715,0.241477 0.2403,0.242362 l 0.0956,0.001 c 0.009,0.157937 0.0286,0.314561 0.061,0.469738 0.003,0.01263 0.006,0.02512 0.009,0.03772 l -0.0811,0.02481 c -0.12882,0.03833 -0.2017,0.174331 -0.16227,0.302824 0.0394,0.127784 0.1751,0.199312 0.30283,0.15968 l 0.0827,-0.02481 c 0.26589,0.669809 0.78151,1.286287 1.56786,1.829863 0.86474,0.597755 1.8917,0.875789 2.8944,0.724503 0.13497,-0.02036 0.26937,-0.04953 0.40256,-0.08578 l 0.0346,0.130742 c 0.0343,0.129689 0.16765,0.206666 0.29714,0.171566 0.12964,-0.03412 0.20681,-0.167149 0.17208,-0.296623 l -0.0444,-0.165365 c 0.17244,-0.07311 0.34185,-0.160444 0.50695,-0.262516 0.0689,0.112023 0.21461,0.148516 0.32814,0.08216 0.11475,-0.06756 0.15332,-0.215149 0.0863,-0.330212 l -0.0186,-0.03101 c 0.33768,-0.270782 0.65121,-0.609459 0.92863,-1.019576 0.78181,-1.155817 0.61372,-2.218076 0.0723,-2.982247 -0.54141,-0.764169 -1.39892,-1.283464 -1.99419,-1.630908 -0.60429,-0.352709 -1.49784,-0.810718 -2.43344,-0.881083 -0.4396,-0.03306 -1.02648,0.03131 -1.60736,0.425339 z m 1.27951,0.147278 c 0.0932,-0.0025 0.18795,5.11e-4 0.28422,0.0078 0.77013,0.05792 1.61288,0.466003 2.18591,0.800468 0.58206,0.339727 1.36744,0.842114 1.81023,1.467094 0.1007,0.142129 0.54655,0.818143 0.32608,1.357021 -0.11498,0.34594 -0.32935,0.576225 -0.68729,0.687814 -0.35794,0.111587 -0.88232,0.091 -1.57407,-0.177767 -0.83677,-0.325108 -2.51395,-1.23935 -3.07423,-1.992127 -0.3136,-0.421366 -0.51399,-0.784889 -0.55655,-1.062467 -0.0603,-0.360947 0.12906,-0.612779 0.3886,-0.825273 0.25415,-0.208084 0.57591,-0.253901 0.89711,-0.262516 z m 0.24133,0.482141 c -0.28435,-0.0021 -0.58089,0.02815 -0.75758,0.287321 -0.10902,0.159948 -0.11766,0.36084 -0.0667,0.538985 0.051,0.178145 0.15446,0.350415 0.29507,0.5271 0.28123,0.353368 0.72269,0.724865 1.29501,1.074353 0.76321,0.466052 1.38105,0.718758 1.87482,0.804602 0.49378,0.08584 0.89943,0.0017 1.12706,-0.277503 0.0821,-0.100667 0.14852,-0.248546 0.13643,-0.409794 -0.0121,-0.161248 -0.0877,-0.313415 -0.21239,-0.470772 -0.24929,-0.314714 -0.71146,-0.686782 -1.55081,-1.23455 -0.11208,-0.07379 -0.26281,-0.04226 -0.3359,0.07028 -0.0738,0.112079 -0.0423,0.262804 0.0703,0.335897 0.82176,0.53629 1.25908,0.904284 1.43713,1.12913 0.32908,0.415558 -0.24534,0.440355 -0.58761,0.380852 -0.40106,-0.06972 -0.97594,-0.295129 -1.70532,-0.740523 -0.53579,-0.32718 -0.94156,-0.675753 -1.16995,-0.962732 -0.1142,-0.143489 -0.18179,-0.272068 -0.20671,-0.359151 0.009,-0.217969 0.24398,-0.209597 0.36122,-0.210836 0.22219,-0.0023 0.49533,0.04296 0.69918,0.101286 0.12827,0.03649 0.26187,-0.03771 0.29869,-0.165882 0.0365,-0.128266 -0.038,-0.260862 -0.16588,-0.29869 -0.20316,-0.06009 -0.43996,-0.116454 -0.83606,-0.119373 z m -2.01694,1.02216 c 0.11783,0.33224 0.3272,0.654506 0.5793,0.993221 0.73544,0.988129 2.41325,1.829526 3.33054,2.185913 0.71507,0.277822 1.33097,0.345388 1.83658,0.224276 -0.16692,0.20677 -0.343,0.385595 -0.52606,0.538985 -0.0783,-0.06555 -0.18937,-0.07486 -0.2775,-0.02325 -0.10295,0.06084 -0.14599,0.187777 -0.10129,0.29869 -0.11977,0.07466 -0.24165,0.140459 -0.36535,0.196371 l -0.0336,-0.125574 c -0.0341,-0.128614 -0.16576,-0.205501 -0.29456,-0.172083 -0.12887,0.03414 -0.20582,0.166102 -0.17208,0.295073 l 0.0439,0.165881 c -0.11284,0.03051 -0.2263,0.05511 -0.34054,0.07235 -0.84132,0.126936 -1.72193,-0.103562 -2.47892,-0.626835 -0.89225,-0.616777 -1.33427,-1.270917 -1.48053,-1.973006 -0.12953,-0.621757 -0.0235,-1.304638 0.28008,-2.050004 z m 0.32763,1.819527 c -0.13328,-0.0091 -0.24872,0.09152 -0.25786,0.224792 -0.009,0.133846 0.0924,0.249542 0.22634,0.257866 l 0.14108,0.0098 c 0.13384,0.0088 0.2493,-0.09297 0.25735,-0.226859 0.009,-0.13385 -0.0924,-0.249548 -0.22635,-0.257866 z m 0.79272,0.819588 c -0.0566,-0.0032 -0.11263,0.01364 -0.15813,0.04754 l -0.25942,0.195337 c -0.10798,0.08003 -0.13003,0.232731 -0.0491,0.340031 0.0805,0.105993 0.23156,0.127008 0.33797,0.04703 l 0.26148,-0.195337 c 0.10599,-0.08053 0.127,-0.23156 0.047,-0.337964 -0.0428,-0.05717 -0.10856,-0.09253 -0.17983,-0.09664 z"
       sodipodi:nodetypes="sscccccccccccccscccccccccccsssccccssccssccscccccccccccssccssccssccccccccccccccccccccccccccccccccc" />
  </g>
</svg>
