<svg xmlns="http://www.w3.org/2000/svg" width="8mm" height="8mm" viewBox="0 0 8 8"><path d="M48.56 98.775c-.4.02-.8.13-1.172.355a.3.3 1.788 0 0-.054.026l-.04.032c-.353.236-.677.58-.942 1.058-.339.61-.573 1.218-.666 1.821l-.106-.008a.257.257 0 0 0-.275.236.257.257 0 0 0 .236.275l.102.008q-.005.254.03.504.002.02.006.04l-.089.02a.257.257 0 0 0-.194.309.257.257 0 0 0 .31.194l.088-.021c.232.73.731 1.424 1.524 2.06.872.699 1.94 1.07 3.016.986q.218-.017.434-.06l.027.14a.257.257 0 0 0 .3.205.257.257 0 0 0 .206-.3l-.035-.18q.282-.097.556-.24a.257.257 0 0 0 .344.113.257.257 0 0 0 .115-.346l-.017-.034a4.9 4.9 0 0 0 1.062-1.01c.917-1.168.817-2.306.301-3.157s-1.385-1.47-1.99-1.883c-.615-.42-1.527-.97-2.514-1.115a3 3 0 0 0-.563-.028m.025.606q.22-.003.448.031c.813.12 1.674.618 2.256 1.016.592.404 1.388.997 1.81 1.693.26.43.404.879.289 1.397a.3.3 1.788 0 0-.044.066c-.149.358-.394.586-.782.678-.388.091-.943.028-1.656-.31-.863-.407-2.574-1.502-3.111-2.342-.301-.471-.486-.871-.51-1.169-.024-.297.056-.514.422-.792a.3.3 1.788 0 0 .044-.05c.263-.15.542-.213.834-.218m.14.526c-.227.006-.445.057-.6.253-.128.162-.15.376-.11.569.041.192.136.382.272.58.272.396.712.824 1.293 1.238.774.552 1.41.866 1.928.994.517.128.952.072 1.215-.207a.64.64 0 0 0 .178-.426c-.001-.172-.072-.339-.192-.515-.24-.353-.702-.782-1.55-1.426a.257.257 0 0 0-.362.048.257.257 0 0 0 .048.362c.831.63 1.268 1.055 1.44 1.306.086.126.102.2.102.227s-.002.032-.038.07c-.086.093-.296.165-.716.061s-1.014-.386-1.754-.914c-.544-.387-.946-.786-1.166-1.107a1.2 1.2 0 0 1-.194-.397c-.02-.094-.005-.123.01-.143 0 0 .155-.07.391-.054.236.015.52.083.733.16a.257.257 0 0 0 .33-.152.257.257 0 0 0-.153-.33 3.3 3.3 0 0 0-.877-.19 3 3 0 0 0-.228-.007m-1.99.94c.1.36.3.717.54 1.094.706 1.104 2.421 2.124 3.367 2.57.74.35 1.387.469 1.932.378a4 4 0 0 1-.6.532.3.3 0 0 0-.097-.06.26.26 0 0 0-.197.014.26.26 0 0 0-.128.309q-.2.105-.403.18l-.026-.136a.257.257 0 0 0-.3-.205.257.257 0 0 0-.206.301l.035.18a3 3 0 0 1-.367.05c-.902.072-1.817-.24-2.58-.853-.9-.722-1.32-1.446-1.422-2.201-.09-.669.074-1.386.452-2.153m.17 1.95a.26.26 0 0 0-.25.222.257.257 0 0 0 .22.29l.15.021a.257.257 0 0 0 .29-.22.257.257 0 0 0-.221-.29l-.149-.021zm.761.93a.26.26 0 0 0-.113.04l-.291.188a.257.257 0 0 0-.077.355.257.257 0 0 0 .356.079l.29-.188a.257.257 0 0 0 .077-.355.26.26 0 0 0-.162-.113.3.3 0 0 0-.08-.005" style="color:#000;fill:#000;stroke-linecap:round;stroke-linejoin:round;-inkscape-stroke:none" transform="matrix(.921 .034 -.03329 .94059 -38.318 -94.448)"/></svg>