<svg id="cocomaterial" viewBox="0 0 110.377 97.14563">
  <path d="m 6750.2691,4334.4635 c 26.402,-49.2678 88.2641,-86.7718 211.2118,-32.0298 122.9477,54.7419 151.4882,181.7164 104.8293,239.5833 -46.6598,57.8669 -156.8556,102.4956 -277.0861,39.0182 -120.2295,-63.4774 -38.955,-246.5717 -38.955,-246.5717 z" color="#000" overflow="visible" fill="transparent" paint-order="fill markers stroke" transform="translate(-187.08468,-45.940395) matrix(0.26458333,0,0,0.26458333,-1581.7309,-1082.0432)"></path>
  <path d="m 6970.0934,4620.4334 c 0,0 2.9424,-1.3878 -59.0347,-1.2178 -72.5396,0.2006 -77.0654,-0.5885 -104.1252,-18.1657 -33.1323,-21.5182 -68.4398,-55.7835 -69.3616,-67.3141 -1.5023,-18.7717 -3.245,-21.0177 -16.3135,-21.0177 -11.2656,0 -12.3287,-1.6827 -5.933,-9.39 9.5465,-11.5016 2.8341,-35.8788 -9.8782,-35.8788 -12.2062,0 -11.9055,-10.5366 0.4335,-15.2724 16.208,-6.2193 11.5776,-28.123 -6.9263,-32.7669 -19.4681,-4.8864 -17.584,-20.7725 2.1272,-17.9336 11.258,1.622 15.1401,-4.0574 24.2936,-35.5431 9.8914,-34.0254 37.3555,-73.7855 62.5285,-90.3093 37.2585,-24.4575 99.082,-7.9622 146.8567,9.0634 51.0273,18.1844 77.6178,42.2209 115.2975,72.0059 25.7752,20.3735 35.2699,33.215 44.0048,59.513 14.9328,44.9596 9.5823,92.2404 -13.1222,115.938 -10.0319,10.4719 -14.9922,21.3145 -12.6021,27.5447 2.9425,7.6673 -0.6993,10.8064 -14.3493,12.3701 -13.8235,1.5838 -21.0911,6.3267 -16.1911,14.2907 6.8802,11.1821 -10.832,22.8045 -18.1476,13.5341 -9.1817,12.5718 -24.0344,14.7072 -24.0344,14.7072 5.425,15.934 -20.0599,23.0684 -25.5254,5.8423 z m -4.1385,-63.2089 c 4.3666,-2.4187 8.6983,-5.1419 18.6868,23.0955 5.7633,16.2942 21.9552,12.2918 21.9552,-3.624 0,-3.176 4.638,-5.775 10.3062,-5.775 5.6681,0 11.8282,-5.8204 13.6887,-12.934 1.8595,-7.1137 6.4513,-12.934 10.2024,-12.934 7.5927,0 30.4726,-19.1196 30.4726,-25.4643 0,-2.2331 -20.1203,-2.9225 -44.7108,-1.5334 -40.2348,2.2738 -48.8115,0.4398 -85.6609,-18.2821 -98.0745,-49.8378 -153.047,-98.8102 -158.7642,-141.4348 -4.1818,-31.1786 -9.0036,-32.8851 -27.2765,-9.6558 -15.2495,19.3867 -17.0874,32.1318 -5.3194,36.8806 4.6804,1.8883 1.9971,9.9999 -4.7917,10.2953 -7.2383,0.317 -10.0356,-1.6826 -9.1713,5.3043 0.77,6.2244 -0.8624,16.5373 -3.6277,22.9171 -12.4917,28.8213 14.1364,97.5794 52.7408,136.1841 22.7733,22.7722 24.0759,23.2132 36.3216,12.2878 12.2373,-10.9168 18.9789,-6.6765 14.8046,6.7465 -6.0507,19.4584 11.8556,22.84 77.0146,21.6611 l 51.736,-0.9371 c -1.818,-16.8588 -6.2694,-39.4201 1.393,-42.7978 z m -62.8291,27.0126 c 0,-7.3239 2.9104,-13.3161 6.4673,-13.3161 3.557,0 6.4674,4.1938 6.4674,9.3188 0,5.1257 -2.9104,11.1174 -6.4674,13.3155 -3.5569,2.1988 -6.4673,-1.9951 -6.4673,-9.3182 z m 32.4339,-8.466 c 0.075,-11.7659 1.2987,-12.694 6.3684,-4.8501 8.1025,12.5381 8.1025,19.4008 0,19.4008 -3.557,0 -6.4231,-6.5477 -6.3684,-14.5507 z m 64.5708,-30.7181 c 0,-8.1025 6.8632,-8.1025 19.4012,0 7.8443,5.0695 6.9159,6.2878 -4.8501,6.368 -8.0027,0.065 -14.5511,-2.8111 -14.5511,-6.368 z m -215.027,-56.5809 c -6.2242,-1.4136 -11.3164,-5.2667 -11.3164,-8.5629 0,-6.9461 4.8397,-6.9869 22.205,-0.1875 14.4766,5.6696 5.8991,12.562 -10.8886,8.7498 z m -13.4728,-51.2016 c -2.3713,-2.3714 -4.311,-6.4644 -4.311,-9.0952 0,-6.2173 25.0024,0.3105 29.5838,7.7204 4.0659,6.5781 -18.8234,7.8236 -25.2728,1.3748 z m 292.3883,51.4163 c 14.045,-8.8513 15.093,-12.9236 12.0252,-46.7555 -4.2921,-47.33 -12.5464,-60.2141 -58.2232,-90.8733 -72.6857,-48.7888 -167.1975,-71.914 -201.6511,-49.3391 -20.9535,13.7293 -27.4576,47.7805 -14.0714,73.6672 15.8291,30.6095 63.3221,68.2234 127.6733,101.1143 53.4335,27.3114 62.1449,29.8626 89.0445,26.0775 16.3993,-2.3074 36.7401,-8.5584 45.2027,-13.8911 z m -57.4211,0.207 c -68.1618,-25.7896 -168.5434,-94.6629 -180.6818,-123.9668 -9.8622,-23.8101 -2.8152,-52.6865 12.8594,-52.6865 6.5182,0 13.6368,-2.888 15.8187,-6.4184 2.4118,-3.9021 14.6057,-0.9662 31.0993,7.4875 29.2417,14.9878 22.436,24.6527 -8.374,11.8908 -23.0759,-9.5582 -32.3962,-4.4086 -32.3962,17.9006 0,24.828 61.0827,80.2235 119.3757,108.2611 25.7884,12.4043 51.5749,22.5529 57.3005,22.5529 11.8782,0 23.8006,-18.9257 23.8006,-37.7827 0,-15.5065 -47.8558,-65.7413 -73.5904,-77.248 -10.2402,-4.5793 -16.8178,-10.1273 -14.6162,-12.3293 4.8633,-4.8632 55.8717,17.3606 55.8717,24.343 0,2.7265 11.6398,17.0728 25.8676,31.8802 27.1437,28.2517 34.9908,61.9821 17.748,76.2922 -10.8792,9.0286 -38.0822,14.3638 -50.0829,9.8234 z" fill="#030303" transform="translate(-187.08468,-45.940395) matrix(0.26458333,0,0,0.26458333,-1581.7309,-1082.0432)"></path>
</svg>
