<svg xmlns="http://www.w3.org/2000/svg" fill="none" viewBox="0 0 27.541 27.451">
  <defs>
    <clipPath id="a" class="frame-clip frame-clip-def">
      <rect width="27.541" height="27.451" rx="0" ry="0"/>
    </clipPath>
  </defs>
  <g clip-path="url(#a)">
    <g class="fills">
      <rect width="27.541" height="27.451" class="frame-background" rx="0" ry="0"/>
    </g>
    <g class="frame-children">
      <g class="feather feather-download">
        <path d="M22.77 16.725v4a2 2 0 0 1-2 2h-14a2 2 0 0 1-2-2v-4" class="fills"/>
        <g stroke-linejoin="round" class="strokes">
          <path stroke="#1e254b" stroke-linecap="round" stroke-width="2" d="M22.77 16.725v4a2 2 0 0 1-2 2h-14a2 2 0 0 1-2-2v-4" class="stroke-shape"/>
        </g>
        <path d="m8.77 11.725 5 5 5-5" class="fills"/>
        <g stroke-linejoin="round" class="strokes">
          <path stroke="#1e254b" stroke-linecap="round" stroke-width="2" d="m8.77 11.725 5 5 5-5" class="stroke-shape"/>
        </g>
        <path d="M13.77 16.725v-12" class="fills"/>
        <g stroke-linejoin="round" class="strokes">
          <path stroke="#1e254b" stroke-linecap="round" stroke-width="2" d="M13.77 16.725v-12" class="stroke-shape"/>
        </g>
      </g>
    </g>
  </g>
</svg>
