<svg xmlns="http://www.w3.org/2000/svg" viewBox="0 0 8 8">
  <path d="M145.246 68.077a1.4 1.4 0 0 0-.297-.217c-.403-.22-.804-.208-.804-.208l.008-.002h-5.833a.3.3 0 0 0-.177.065l-1.83 1.474a.284.284 0 0 0 0 .444l1.83 1.475a.3.3 0 0 0 .177.064h5.811s.403.013.81-.207.819-.715.819-1.553c0-.627-.229-1.063-.514-1.335m-.379.41c.18.16.324.422.324.925 0 .67-.258.912-.52 1.053q-.137.07-.259.1v-2.31a1.1 1.1 0 0 1 .455.232m-1.055-.268v.931h-5.242v-.931zm0 1.431v.953h-5.242v-.953zm-5.742-1.149v1.818l-1.125-.909z" transform="rotate(-45 -5.865 195.836) scale(.96763)"/>
</svg>
