<svg xmlns="http://www.w3.org/2000/svg" viewBox="0 0 8 8">
  <path d="M36.397 40.303a3.34 3.34 0 0 0-3.335 3.336 3.34 3.34 0 0 0 3.335 3.335 3.34 3.34 0 0 0 3.336-3.335 3.34 3.34 0 0 0-3.336-3.336m0 .543a2.79 2.79 0 0 1 2.793 2.793 2.79 2.79 0 0 1-2.793 2.792 2.79 2.79 0 0 1-2.792-2.792 2.79 2.79 0 0 1 2.792-2.793m-1.045 1.73a.425.425 0 0 0-.425.426.425.425 0 0 0 .425.425.425.425 0 0 0 .425-.425.425.425 0 0 0-.425-.425m2.091 0a.425.425 0 0 0-.426.426.425.425 0 0 0 .426.425.425.425 0 0 0 .425-.425.425.425 0 0 0-.425-.425m.266 1.77a.27.27 0 0 0-.187.092s-.404.456-1.125.456c-.722 0-1.123-.456-1.123-.456a.27.27 0 0 0-.383-.024.27.27 0 0 0-.024.383s.572.64 1.53.64 1.53-.64 1.53-.64a.27.27 0 0 0-.023-.383.27.27 0 0 0-.195-.068" transform="translate(-34.939 -42.685) scale(1.06982)"/>
</svg>
