<?xml version="1.0" encoding="UTF-8" standalone="no"?>
<!-- Created with Inkscape (http://www.inkscape.org/) -->

<svg
   width="9.7502365mm"
   height="9.7502365mm"
   viewBox="0 0 9.7502365 9.7502365"
   version="1.1"
   id="svg1"
   sodipodi:docname="estimation_flat.svg"
   inkscape:version="1.3.2 (091e20ef0f, 2023-11-25)"
   xmlns:inkscape="http://www.inkscape.org/namespaces/inkscape"
   xmlns:sodipodi="http://sodipodi.sourceforge.net/DTD/sodipodi-0.dtd"
   xmlns="http://www.w3.org/2000/svg"
   xmlns:svg="http://www.w3.org/2000/svg">
  <sodipodi:namedview
     id="namedview1"
     pagecolor="#ffffff"
     bordercolor="#000000"
     borderopacity="0.25"
     inkscape:showpageshadow="2"
     inkscape:pageopacity="0.0"
     inkscape:pagecheckerboard="0"
     inkscape:deskcolor="#d1d1d1"
     inkscape:document-units="mm"
     inkscape:zoom="14.431402"
     inkscape:cx="12.542094"
     inkscape:cy="30.1426"
     inkscape:window-width="2560"
     inkscape:window-height="1515"
     inkscape:window-x="0"
     inkscape:window-y="1415"
     inkscape:window-maximized="1"
     inkscape:current-layer="layer1" />
  <defs
     id="defs1" />
  <g
     inkscape:label="Capa 1"
     inkscape:groupmode="layer"
     id="layer1"
     transform="translate(-172.52985,-50.20407)">
    <g
       id="g458"
       transform="translate(414.31666,-105.62785)">
      <path
         id="path455-7"
         style="color:#000000;fill:#000000;stroke-linecap:round;stroke-linejoin:round;-inkscape-stroke:none"
         d="m -235.67762,156.76261 c -0.0551,0.002 -0.11042,0.009 -0.16588,0.0227 l -2.74247,0.66404 c -0.40487,0.098 -0.66966,0.48405 -0.63304,0.88832 -0.40799,0.23199 -0.8112,0.47244 -1.21853,0.70538 -0.39595,0.22644 -0.53133,0.74063 -0.30489,1.13637 v 0.002 l 2.32234,4.05504 c 0.22674,0.39579 0.74219,0.53408 1.13688,0.30438 l 0.48834,-0.28319 c 0.001,-8.5e-4 0.003,-0.002 0.004,-0.003 0.0549,0.0111 0.11148,0.0166 0.1695,0.016 l 2.8205,-0.0233 c 0.45612,-0.004 0.83092,-0.38178 0.82992,-0.83767 l -0.0134,-4.67207 c -0.001,-0.45612 -0.38135,-0.8325 -0.83819,-0.82785 l -0.89555,0.007 -0.12196,-0.51521 c -0.0918,-0.3884 -0.45186,-0.6522 -0.83767,-0.63976 z m 0.0243,0.59945 c 0.10972,-0.006 0.20245,0.063 0.22944,0.17725 l 0.0909,0.38344 -1.30948,0.0109 c -0.4561,0.004 -0.82938,0.38179 -0.82837,0.83768 l 0.0109,4.22351 c -0.0396,-0.0307 -0.0699,-0.0748 -0.0832,-0.13126 l -1.07384,-4.54907 c -0.0296,-0.13001 0.0439,-0.24972 0.17364,-0.28112 l 2.74195,-0.66405 c 0.0162,-0.004 0.0324,-0.006 0.0481,-0.007 z m 1.83709,1.14773 c 0.13343,-0.001 0.23216,0.0963 0.23255,0.23048 l 0.0114,4.67207 c 3e-4,0.13435 -0.0979,0.23506 -0.23203,0.23616 l -2.82257,0.0232 c -0.13339,0.001 -0.2301,-0.0943 -0.23048,-0.22841 l -0.0134,-4.67361 c -3e-4,-0.13436 0.0979,-0.23558 0.23203,-0.23668 z m -5.26686,0.44184 0.95601,4.04833 c 0.08,0.33842 0.364,0.58206 0.69092,0.63097 0.021,0.0878 0.0566,0.17004 0.10335,0.24494 l -0.25115,0.14573 c -0.11543,0.0672 -0.24803,0.0322 -0.31471,-0.0842 l -2.32388,-4.05453 c -0.0667,-0.11658 -0.0304,-0.2535 0.0858,-0.3204 0.35132,-0.20223 0.70272,-0.407 1.05366,-0.61084 z"
         sodipodi:nodetypes="ccscscccccccccccccccccccccccccccccccccccccccccccsc" />
    </g>
  </g>
</svg>
