<svg xmlns="http://www.w3.org/2000/svg" width="8mm" height="8mm" viewBox="0 0 8 8"><path d="M-230.13 170.141a1 1 0 0 0-.167.023l-2.742.664a.84.84 0 0 0-.631.912l-1.29.748a.84.84 0 0 0-.308 1.139l2.323 4.055a.834.834 0 0 0 1.136.304v.002l.489-.285.002-.001a1 1 0 0 0 .171.017l2.82-.024a.84.84 0 0 0 .83-.837l-.013-4.673a.835.835 0 0 0-.836-.827h-.002l-.806.006-.139-.585a.84.84 0 0 0-.838-.638m.024.598a.22.22 0 0 1 .23.179l.106.451-1.398.012a.84.84 0 0 0-.828.838l.012 4.059-.012-.038-1.075-4.547a.23.23 0 0 1 .175-.283l2.742-.664a.3.3 0 0 1 .048-.007m1.764 1.218a.22.22 0 0 1 .233.228l.011 4.675a.23.23 0 0 1-.232.236l-2.822.023a.22.22 0 0 1-.23-.23l-.014-4.672c0-.134.1-.236.234-.237zm-5.19.396.952 4.026c.073.309.314.54.604.613q.026.181.119.33l-.252.147a.22.22 0 0 1-.315-.086l-2.322-4.053v-.002a.23.23 0 0 1 .086-.32z" style="color:#000;fill:#000;stroke-linecap:round;stroke-linejoin:round;-inkscape-stroke:none" transform="translate(235.437 -170.12)"/></svg>