<svg id="group" viewBox="0 0 24 24">
  <title>group</title>
  <path d="m18.491 9.782c-0.39344-1.3967-1.2246-2.5918-2.4098-3.4623-1.1803-0.86557-2.5967-1.323-4.0918-1.323-1.4803 0-2.8869 0.45738-4.0623 1.3279-1.1803 0.87049-2.0115 2.0705-2.4049 3.4623-0.38852 1.3574-0.29016 2.8328 0.28033 4.1557 0.52623 1.2246 1.4361 2.2721 2.582 2.9803v1.559l-0.00491 2.0262v0.0098c0.044254 1.923 1.6623 3.482 3.6098 3.482 1.9869 0 3.6049-1.5689 3.6049-3.4967v-3.5852c1.1607-0.7082 2.0803-1.7607 2.6115-2.9852 0.57049-1.3131 0.67377-2.7885 0.28525-4.1508zm-6.5016 13.234c-1.2393 0-2.2967-0.87049-2.5623-2.0213h5.1295c-0.23607 1.1508-1.2984 2.0213-2.5672 2.0213zm2.6262-3.0049h-5.2475l0.00491-1.0426h5.2426zm0.2459-3.8066c-0.15738 0.08852-0.25574 0.25082-0.25574 0.43279v1.3475h-5.2377v-1.3475c0-0.17705-0.098362-0.34426-0.25082-0.42787-2.2328-1.2541-3.3246-3.782-2.6459-6.1574 0.67377-2.3951 2.941-4.0721 5.518-4.0721 2.6361 0 4.8689 1.6377 5.5574 4.0721 0.67869 2.3754-0.42787 4.9082-2.6852 6.1525zm-2.8721-12.256c0.27049 0 0.4918-0.22131 0.4918-0.4918v-2.9656c0-0.27049-0.22131-0.4918-0.4918-0.4918-0.27049 0-0.4918 0.22131-0.4918 0.4918v2.9656c0 0.27049 0.22131 0.4918 0.4918 0.4918zm-4.4607 0.38852c0.093441 0.09344 0.21639 0.13771 0.33934 0.13771 0.12787 0 0.25574-0.04918 0.3541-0.14754 0.1918-0.1918 0.18689-0.50656-0.00983-0.69344l-2.1-2.0262c-0.1918-0.1918-0.50164-0.18197-0.69344 0.0098-0.1918 0.1918-0.18689 0.50656 0.00983 0.69344zm8.6213 0.13771c0.12787 0 0.25082-0.04918 0.34426-0.14262l2.0607-2.0262c0.1918-0.18688 0.19672-0.50164 0.0049-0.69344-0.18689-0.1918-0.50164-0.19672-0.69344-0.0049l-2.0607 2.0262c-0.1918 0.18689-0.19672 0.50164-0.0049 0.69344 0.09344 0.09836 0.22131 0.14754 0.34918 0.14754z" stroke-width=".04918"></path>
</svg>
