<svg xmlns="http://www.w3.org/2000/svg" width="8mm" height="8mm" viewBox="0 0 8 8"><path d="M32.082 294.357a.316.316 0 0 0-.315.317.316.316 0 0 0 .315.316h.633a.316.316 0 0 0 .316-.316.316.316 0 0 0-.316-.317zm1.899 0a.316.316 0 0 0-.317.317.316.316 0 0 0 .317.316h.63a.316.316 0 0 0 .317-.316.316.316 0 0 0-.317-.317zm1.818.133a.32.32 0 0 0-.236.21.316.316 0 0 0 .199.4l.02.006.085.033.084.039.082.04.08.048.076.048.05.036a.316.316 0 0 0 .44-.077.316.316 0 0 0-.075-.439l-.053-.039-.014-.008-.09-.058-.013-.008-.092-.053-.014-.008-.096-.05-.013-.007-.1-.043-.014-.006-.101-.041-.014-.004-.027-.009a.3.3 0 0 0-.164-.01m-4.708.111a.3.3 0 0 0-.16.034v-.002l-.052.027-.014.008-.093.053-.012.008-.092.059-.012.008-.088.062-.011.008-.084.067-.012.01-.08.07-.012.01-.027.027a.316.316 0 0 0-.012.448.316.316 0 0 0 .448.01l.023-.022.068-.06.073-.057.073-.053.079-.049.08-.047.045-.023a.316.316 0 0 0 .136-.424.32.32 0 0 0-.264-.172m6.144 1.16a.3.3 0 0 0-.163.019.316.316 0 0 0-.177.41l.02.048.028.09.026.09.021.092.018.093.011.096v.012a.316.316 0 0 0 .34.291.316.316 0 0 0 .291-.338l-.002-.02-.001-.015-.014-.111-.002-.016-.02-.11-.004-.015-.023-.107-.004-.016-.031-.105-.004-.016-.035-.104-.004-.013-.024-.057a.32.32 0 0 0-.247-.198m-6.061.042a.3.3 0 0 0-.3.3v2.807a.3.3 0 0 0 .3.3h1.583l-.005.03c0 1.037.847 1.883 1.883 1.883a1.887 1.887 0 0 0 1.882-1.883 1.888 1.888 0 0 0-2.236-1.849v-1.288a.3.3 0 0 0-.3-.3zm-1.176.242a.316.316 0 0 0-.379.236l-.022.096-.001.015-.02.11-.004.016-.013.11-.002.017-.008.113v.015l-.004.115v.093a.316.316 0 0 0 .316.314.316.316 0 0 0 .316-.314v-.08l.003-.104.008-.098.011-.095.018-.094.02-.086a.316.316 0 0 0-.24-.379m1.477.357h2.207v2.208h-2.207zm5.87 1.233a.316.316 0 0 0-.316.316v.633a.316.316 0 0 0 .316.317.316.316 0 0 0 .317-.317v-.633a.316.316 0 0 0-.317-.316m-7.484.293a.316.316 0 0 0-.316.316v.633a.316.316 0 0 0 .316.316.316.316 0 0 0 .317-.316v-.633a.316.316 0 0 0-.317-.316m4.774.029c.712 0 1.28.571 1.28 1.283s-.568 1.283-1.28 1.283a1.28 1.28 0 0 1-1.283-1.283l-.006-.03h.635a.3.3 0 0 0 .3-.3v-.903q.168-.049.354-.05m2.711 1.574a.316.316 0 0 0-.317.317v.189l-.004.104-.006.095-.011.096-.018.09a.316.316 0 0 0 .256.367.316.316 0 0 0 .367-.256l.018-.098.002-.015.014-.112.002-.015.01-.113v-.016l.001-.115.003-.008v-.194a.316.316 0 0 0-.317-.316m-7.49.293a.316.316 0 0 0-.309.324l.002.016v.016l.008.113.002.015.014.112.003.015.02.11.002.016.025.107.004.015.03.106.005.015.018.057a.316.316 0 0 0 .4.2.316.316 0 0 0 .2-.401l-.016-.051-.025-.09-.022-.092-.018-.095-.011-.096-.008-.095v-.008a.316.316 0 0 0-.324-.309m6.943 1.451a.32.32 0 0 0-.303.09l-.023.026-.067.062-.068.06-.072.055-.077.055-.076.05-.043.022a.316.316 0 0 0-.117.432.316.316 0 0 0 .432.117l.049-.027.013-.008.09-.059.014-.008.085-.062.014-.01.083-.065.011-.01.082-.07.01-.01.078-.075.01-.01.029-.03a.316.316 0 0 0-.01-.448v.001a.3.3 0 0 0-.144-.078m-6.057.193a.32.32 0 0 0-.293.118.316.316 0 0 0 .053.443l.055.041.011.01.088.063.012.008.092.058.012.008.093.053.014.008.096.049.013.006.098.045.016.006.025.01a.316.316 0 0 0 .408-.178.316.316 0 0 0-.178-.41l-.017-.008-.084-.037-.082-.043-.08-.045-.079-.049-.073-.054-.05-.039a.3.3 0 0 0-.15-.063m1.742.48a.316.316 0 0 0-.316.316.316.316 0 0 0 .316.314h.633a.316.316 0 0 0 .316-.314.316.316 0 0 0-.316-.317zm1.9 0a.316.316 0 0 0-.317.316.316.316 0 0 0 .316.314h.63a.316.316 0 0 0 .317-.314.316.316 0 0 0-.317-.317z" style="color:#000;fill:#000;stroke-linecap:round;stroke-linejoin:round;stroke-dasharray:.632291,1.26458;-inkscape-stroke:none" transform="matrix(.97304 0 0 .9731 -28.697 -286.44)"/></svg>