<?xml version="1.0" encoding="UTF-8" standalone="no"?>
<!-- Created with Inkscape (http://www.inkscape.org/) -->

<svg
   width="9.7502365mm"
   height="9.7502365mm"
   viewBox="0 0 9.7502365 9.7502365"
   version="1.1"
   id="svg1"
   sodipodi:docname="group_flat.svg"
   inkscape:version="1.3.2 (091e20ef0f, 2023-11-25)"
   xmlns:inkscape="http://www.inkscape.org/namespaces/inkscape"
   xmlns:sodipodi="http://sodipodi.sourceforge.net/DTD/sodipodi-0.dtd"
   xmlns="http://www.w3.org/2000/svg"
   xmlns:svg="http://www.w3.org/2000/svg">
  <sodipodi:namedview
     id="namedview1"
     pagecolor="#ffffff"
     bordercolor="#000000"
     borderopacity="0.25"
     inkscape:showpageshadow="2"
     inkscape:pageopacity="0.0"
     inkscape:pagecheckerboard="0"
     inkscape:deskcolor="#d1d1d1"
     inkscape:document-units="mm"
     inkscape:zoom="25.430223"
     inkscape:cx="19.543674"
     inkscape:cy="24.026529"
     inkscape:window-width="2560"
     inkscape:window-height="1515"
     inkscape:window-x="0"
     inkscape:window-y="1415"
     inkscape:window-maximized="1"
     inkscape:current-layer="layer1" />
  <defs
     id="defs1" />
  <g
     inkscape:label="Capa 1"
     inkscape:groupmode="layer"
     id="layer1"
     transform="translate(-172.52985,-50.20407)">
    <g
       id="g449-6-0"
       transform="translate(143.86904,-243.73585)">
      <path
         id="rect130-9-0-4"
         style="color:#000000;fill:#000000;stroke-linecap:round;stroke-linejoin:round;stroke-dasharray:0.6, 1.2;-inkscape-stroke:none"
         d="M 31.873017 295.05096 A 0.30000001 0.30000001 0 0 0 31.574327 295.35172 A 0.30000001 0.30000001 0 0 0 31.873017 295.65041 L 32.472464 295.65041 A 0.30000001 0.30000001 0 0 0 32.77322 295.35172 A 0.30000001 0.30000001 0 0 0 32.472464 295.05096 L 31.873017 295.05096 z M 33.673941 295.05096 A 0.30000001 0.30000001 0 0 0 33.373184 295.35172 A 0.30000001 0.30000001 0 0 0 33.673941 295.65041 L 34.273387 295.65041 A 0.30000001 0.30000001 0 0 0 34.574144 295.35172 A 0.30000001 0.30000001 0 0 0 34.273387 295.05096 L 33.673941 295.05096 z M 35.510004 295.07215 A 0.30000001 0.30000001 0 0 0 35.175658 295.33208 A 0.30000001 0.30000001 0 0 0 35.43559 295.66798 L 35.462979 295.67211 L 35.548762 295.68555 L 35.632994 295.70519 L 35.714643 295.72844 L 35.794741 295.75583 L 35.87329 295.78684 L 35.923933 295.80854 A 0.30000001 0.30000001 0 0 0 36.320291 295.65816 A 0.30000001 0.30000001 0 0 0 36.169912 295.2618 L 36.113068 295.23648 A 0.30003001 0.30003001 0 0 0 36.099632 295.23028 L 36.007648 295.19514 A 0.30003001 0.30003001 0 0 0 35.992145 295.18894 L 35.898611 295.15793 A 0.30003001 0.30003001 0 0 0 35.884658 295.15173 L 35.789057 295.12641 A 0.30003001 0.30003001 0 0 0 35.773554 295.12228 L 35.675886 295.09902 A 0.30003001 0.30003001 0 0 0 35.660383 295.09696 L 35.560647 295.07784 A 0.30003001 0.30003001 0 0 0 35.545144 295.07577 L 35.510004 295.07215 z M 30.736136 295.36826 A 0.30000001 0.30000001 0 0 0 30.627098 295.41011 L 30.575939 295.44319 A 0.30003001 0.30003001 0 0 0 30.56457 295.45146 L 30.484471 295.50778 A 0.30003001 0.30003001 0 0 0 30.472586 295.51812 L 30.396621 295.57651 A 0.30003001 0.30003001 0 0 0 30.384736 295.58685 L 30.312389 295.65093 A 0.30003001 0.30003001 0 0 0 30.30102 295.66126 L 30.230223 295.72741 A 0.30003001 0.30003001 0 0 0 30.220405 295.73774 L 30.154259 295.80802 A 0.30003001 0.30003001 0 0 0 30.14444 295.81939 L 30.1093 295.85867 A 0.30000001 0.30000001 0 0 0 30.140306 296.28241 A 0.30000001 0.30000001 0 0 0 30.562503 296.25141 L 30.593509 296.21782 L 30.650353 296.15736 L 30.710814 296.10103 L 30.773343 296.04625 L 30.837938 295.99561 L 30.906151 295.94652 L 30.951109 295.91758 A 0.30000001 0.30000001 0 0 0 31.041026 295.50313 A 0.30000001 0.30000001 0 0 0 30.853441 295.37239 L 30.853441 295.37136 A 0.30000001 0.30000001 0 0 0 30.736136 295.36826 z M 36.91767 296.02145 A 0.30000001 0.30000001 0 0 0 36.769359 296.06847 A 0.30000001 0.30000001 0 0 0 36.677892 296.4824 L 36.718716 296.55475 L 36.755923 296.62916 L 36.791063 296.70513 L 36.822069 296.78316 L 36.849457 296.86326 L 36.871162 296.93974 A 0.30000001 0.30000001 0 0 0 37.230313 297.16401 A 0.30000001 0.30000001 0 0 0 37.455105 296.80486 A 0.30003001 0.30003001 0 0 0 37.450971 296.78936 L 37.423583 296.69324 A 0.30003001 0.30003001 0 0 0 37.419965 296.6798 L 37.388443 296.5842 A 0.30003001 0.30003001 0 0 0 37.382758 296.57025 L 37.347618 296.47878 A 0.30003001 0.30003001 0 0 0 37.341934 296.46483 L 37.300593 296.37491 A 0.30003001 0.30003001 0 0 0 37.294908 296.36148 L 37.24995 296.27518 A 0.30003001 0.30003001 0 0 0 37.242198 296.26174 L 37.193622 296.17596 A 0.30003001 0.30003001 0 0 0 37.187421 296.16407 L 37.183804 296.15994 A 0.30000001 0.30000001 0 0 0 36.91767 296.02145 z M 31.173835 296.23435 A 0.30003001 0.30003001 0 0 0 30.875145 296.53511 L 30.875145 299.34166 A 0.30003001 0.30003001 0 0 0 31.173835 299.64086 L 32.759268 299.64086 C 32.838532 300.60535 33.650423 301.36892 34.634606 301.36892 C 35.670891 301.36892 36.517699 300.52264 36.517695 299.48635 C 36.517692 298.45007 35.670888 297.60326 34.634606 297.60326 C 34.514019 297.60326 34.396039 297.61529 34.281139 297.63737 L 34.281139 296.53511 A 0.30003001 0.30003001 0 0 0 33.980382 296.23435 L 31.173835 296.23435 z M 31.474592 296.8338 L 33.681692 296.8338 L 33.681692 299.0409 L 31.474592 299.0409 L 31.474592 296.8338 z M 29.898461 296.83793 A 0.30000001 0.30000001 0 0 0 29.562564 297.09787 L 29.55843 297.13301 A 0.30003001 0.30003001 0 0 0 29.556363 297.14851 L 29.548611 297.25186 A 0.30003001 0.30003001 0 0 0 29.548611 297.26737 L 29.544994 297.37124 A 0.30003001 0.30003001 0 0 0 29.544994 297.37899 L 29.544994 297.73452 A 0.30000001 0.30000001 0 0 0 29.845751 298.03528 A 0.30000001 0.30000001 0 0 0 30.14444 297.73452 L 30.14444 297.38312 L 30.148574 297.28907 L 30.154259 297.20122 L 30.158393 297.17383 A 0.30000001 0.30000001 0 0 0 29.898461 296.83793 z M 37.226695 297.76759 A 0.30000001 0.30000001 0 0 0 36.925939 298.06628 L 36.925939 298.66625 A 0.30000001 0.30000001 0 0 0 37.226695 298.967 A 0.30000001 0.30000001 0 0 0 37.527452 298.66625 L 37.527452 298.06628 A 0.30000001 0.30000001 0 0 0 37.226695 297.76759 z M 34.634606 298.20323 C 35.346624 298.20323 35.916178 298.77433 35.916181 299.48635 C 35.916183 300.19838 35.346629 300.76948 34.634606 300.76948 C 33.974925 300.76948 33.436946 300.27921 33.361298 299.64086 L 33.980382 299.64086 A 0.30003001 0.30003001 0 0 0 34.281139 299.34166 L 34.281139 298.25284 C 34.393326 298.22072 34.511423 298.20323 34.634606 298.20323 z M 29.845751 298.63472 A 0.30000001 0.30000001 0 0 0 29.544994 298.93548 L 29.544994 299.53493 A 0.30000001 0.30000001 0 0 0 29.845751 299.8362 A 0.30000001 0.30000001 0 0 0 30.14444 299.53493 L 30.14444 298.93548 A 0.30000001 0.30000001 0 0 0 29.845751 298.63472 z M 37.226695 299.56593 L 37.226695 299.56645 A 0.30000001 0.30000001 0 0 0 36.925939 299.86721 L 36.925939 300.246 L 36.923872 300.34005 L 36.91767 300.4279 A 0.30000001 0.30000001 0 0 0 37.177603 300.76379 A 0.30000001 0.30000001 0 0 0 37.5135 300.50386 L 37.5135 300.49611 A 0.30003001 0.30003001 0 0 0 37.515567 300.48009 L 37.523318 300.3788 A 0.30003001 0.30003001 0 0 0 37.523318 300.3633 L 37.527452 300.25788 A 0.30003001 0.30003001 0 0 0 37.527452 300.25633 A 0.30003001 0.30003001 0 0 0 37.527452 300.25581 A 0.30003001 0.30003001 0 0 0 37.527452 300.25426 A 0.30003001 0.30003001 0 0 0 37.527452 300.25375 A 0.30003001 0.30003001 0 0 0 37.527452 300.25323 A 0.30003001 0.30003001 0 0 0 37.527452 300.25168 A 0.30003001 0.30003001 0 0 0 37.527452 300.25116 A 0.30003001 0.30003001 0 0 0 37.527452 300.24961 L 37.527452 299.86669 A 0.30000001 0.30000001 0 0 0 37.226695 299.56593 z M 29.835932 300.43771 A 0.30000001 0.30000001 0 0 0 29.609589 300.79687 L 29.617341 300.82632 A 0.30003001 0.30003001 0 0 0 29.619408 300.83976 L 29.64628 300.93743 A 0.30003001 0.30003001 0 0 0 29.652481 300.95138 L 29.683487 301.04491 A 0.30003001 0.30003001 0 0 0 29.689688 301.05887 L 29.724828 301.1524 A 0.30003001 0.30003001 0 0 0 29.730512 301.16429 L 29.771853 301.2542 A 0.30003001 0.30003001 0 0 0 29.777538 301.26764 L 29.822496 301.35549 A 0.30003001 0.30003001 0 0 0 29.828181 301.36944 L 29.867455 301.43352 A 0.30000001 0.30000001 0 0 0 30.275699 301.54514 A 0.30000001 0.30000001 0 0 0 30.386803 301.13483 L 30.35373 301.07644 L 30.314456 301.00202 L 30.281383 300.92606 L 30.250377 300.84751 L 30.222989 300.76586 L 30.199217 300.68369 L 30.1956 300.66406 A 0.30000001 0.30000001 0 0 0 29.836449 300.43771 L 29.835932 300.43771 z M 36.811217 301.2604 A 0.30000001 0.30000001 0 0 0 36.527513 301.35911 L 36.478421 301.41388 L 36.422093 301.47434 L 36.361115 301.53119 L 36.298587 301.58596 L 36.234508 301.63661 L 36.165778 301.68518 L 36.144591 301.69914 A 0.30000001 0.30000001 0 0 0 36.054674 302.11306 A 0.30000001 0.30000001 0 0 0 36.468602 302.20298 L 36.495991 302.18541 A 0.30003001 0.30003001 0 0 0 36.507876 302.17714 L 36.587975 302.12082 A 0.30003001 0.30003001 0 0 0 36.59986 302.11255 L 36.675825 302.05209 A 0.30003001 0.30003001 0 0 0 36.685643 302.04227 L 36.760057 301.97974 A 0.30003001 0.30003001 0 0 0 36.771426 301.96992 L 36.841706 301.90326 A 0.30003001 0.30003001 0 0 0 36.851525 301.89189 L 36.918187 301.82161 A 0.30003001 0.30003001 0 0 0 36.928006 301.81127 L 36.980716 301.75081 A 0.30000001 0.30000001 0 0 0 36.95126 301.32707 L 36.95126 301.3281 A 0.30000001 0.30000001 0 0 0 36.811217 301.2604 z M 30.969713 301.78389 A 0.30000001 0.30000001 0 0 0 30.726317 301.95907 A 0.30000001 0.30000001 0 0 0 30.876695 302.35543 L 30.958861 302.3947 A 0.30003001 0.30003001 0 0 0 30.972814 302.39884 L 31.064281 302.43553 A 0.30003001 0.30003001 0 0 0 31.078234 302.44173 L 31.173835 302.47273 A 0.30003001 0.30003001 0 0 0 31.187271 302.47687 L 31.283389 302.50426 A 0.30003001 0.30003001 0 0 0 31.298892 302.50839 L 31.39656 302.53164 A 0.30003001 0.30003001 0 0 0 31.412063 302.53371 L 31.511799 302.55128 A 0.30003001 0.30003001 0 0 0 31.525235 302.55335 L 31.532986 302.55541 A 0.30000001 0.30000001 0 0 0 31.868883 302.29548 A 0.30000001 0.30000001 0 0 0 31.609467 301.95959 L 31.523168 301.94408 L 31.439452 301.92445 L 31.357286 301.90274 L 31.277188 301.87587 L 31.199156 301.84435 L 31.123192 301.80869 A 0.30000001 0.30000001 0 0 0 30.969713 301.78389 z M 32.769603 301.97871 A 0.30000001 0.30000001 0 0 0 32.470913 302.27946 A 0.30000001 0.30000001 0 0 0 32.769603 302.57815 L 33.371117 302.57815 A 0.30000001 0.30000001 0 0 0 33.669807 302.27946 A 0.30000001 0.30000001 0 0 0 33.371117 301.97871 L 32.769603 301.97871 z M 34.570527 301.97871 A 0.30000001 0.30000001 0 0 0 34.26977 302.27946 A 0.30000001 0.30000001 0 0 0 34.570527 302.57815 L 35.169973 302.57815 A 0.30000001 0.30000001 0 0 0 35.47073 302.27946 A 0.30000001 0.30000001 0 0 0 35.169973 301.97871 L 34.570527 301.97871 z " />
    </g>
  </g>
</svg>
