<svg xmlns="http://www.w3.org/2000/svg" width="8mm" height="8mm" viewBox="0 0 8 8"><path d="M125.554 155.244h-.109c-.58.018-1.175.298-1.62.883l-.032.04-.033-.04c-.445-.586-1.045-.863-1.63-.877-.583-.014-1.144.22-1.575.603s-.74.923-.787 1.534c-.048.61.175 1.28.74 1.882 1.017 1.085 3.072 3.151 3.072 3.151a.3.3 0 0 0 .191.088h.053a1 1 0 0 0 .086-.022.4.4 0 0 0 .05-.025c.024-.015.039-.026.054-.037l.096-.08q.106-.097.27-.258c.22-.214.51-.505.829-.832a79 79 0 0 0 1.873-1.989c.552-.613.767-1.285.717-1.896a2.3 2.3 0 0 0-.783-1.531 2.3 2.3 0 0 0-1.462-.594m-.089.6c.408-.013.828.155 1.152.443.325.288.548.69.584 1.131s-.104.936-.565 1.447a79 79 0 0 1-2.675 2.791c-.063.062-.103.098-.15.143-.234-.235-1.928-1.94-2.866-2.94-.47-.501-.614-.987-.58-1.426s.26-.84.588-1.13c.328-.291.752-.463 1.164-.454s.818.184 1.166.641c.097.128.278.352.278.352a.3.3 0 0 0 .465 0s.18-.225.277-.352c.348-.458.754-.634 1.162-.646m.391.617a.25.25 0 0 0-.246.192.25.25 0 0 0 .183.302c.08.02.222.124.302.262s.103.282.048.408a.25.25 0 0 0 .128.33.25.25 0 0 0 .33-.129c.133-.3.067-.62-.074-.861-.14-.242-.351-.431-.615-.496a.3.3 0 0 0-.056-.008" style="color:#000;fill:#000;stroke-linecap:round;stroke-linejoin:round;-inkscape-stroke:none" transform="matrix(.96568 0 0 1.0192 -115.535 -157.927)"/></svg>