<svg xmlns="http://www.w3.org/2000/svg" width="8mm" height="8mm" viewBox="0 0 8 8"><path d="M178.25 75.574a.72.72 0 0 0-.715.715v6.086a.72.72 0 0 0 .715.715h6.086a.72.72 0 0 0 .715-.715v-6.086a.72.72 0 0 0-.715-.715zm0 .58h6.086c.08 0 .133.056.133.135v3.45l-1.307-1.307a.24.24 0 0 0-.342 0l-2.181 2.181-1.152-1.152a.24.24 0 0 0-.343 0l-1.029 1.03v-4.202c0-.08.056-.134.135-.134m1.691.555a.99.99 0 0 0-.986.987.99.99 0 0 0 .986.985.99.99 0 0 0 .987-.985.99.99 0 0 0-.987-.987m0 .484c.28 0 .503.222.503.503 0 .28-.222.501-.503.501a.5.5 0 0 1-.501-.501c0-.28.221-.503.501-.503m3.051 1.753 1.477 1.476v1.953c0 .08-.054.135-.133.135h-6.086a.13.13 0 0 1-.135-.135v-1.201l1.202-1.2 1.15 1.153a.24.24 0 0 0 .341 0z" style="color:#000;fill:#000;stroke-linejoin:round;-inkscape-stroke:none" transform="translate(-177.292 -75.332)"/></svg>