<svg id="letter" viewBox="0 0 24 24">
  <title>letter</title>
  <path d="m12.563 5.537c-0.0049-0.0098-0.0098-0.0147-0.0098-0.02449-0.0098-0.01961-0.01962-0.0392-0.02941-0.0588-0.0098-0.0147-0.01961-0.03432-0.0294-0.049-0.0098-0.0147-0.02449-0.0294-0.03432-0.0441-0.0147-0.0147-0.02449-0.0294-0.0392-0.0441-0.0147-0.0147-0.02449-0.02449-0.0392-0.03432-0.0147-0.0147-0.03432-0.02449-0.049-0.0392-0.0147-0.0098-0.02941-0.01962-0.0441-0.02449-0.01962-0.0098-0.0392-0.01962-0.0637-0.02941-0.0098-0.0049-0.0147-0.0098-0.02449-0.0098-0.0098-0.0049-0.0147-0.0049-0.02449-0.0049-0.02449-0.0049-0.0441-0.0147-0.0686-0.0147-0.0147-0.0049-0.03432-0.0049-0.049-0.0098-0.01962 0-0.0392-0.0049-0.0637-0.0049-0.01961 0-0.0392 0-0.0588 0.0049-0.01961 0-0.03432 0.0049-0.0539 0.0098-0.02449 0.0049-0.0441 0.0098-0.0637 0.0147-0.0098 0.0049-0.0147 0.0049-0.02449 0.0049-0.0098 0.0049-0.0147 0.0098-0.02449 0.0098-0.01962 0.0098-0.0392 0.01962-0.0588 0.02941-0.0147 0.0098-0.02941 0.01961-0.0441 0.02449-0.01962 0.0098-0.03432 0.02449-0.049 0.0392-0.0147 0.0098-0.0294 0.02449-0.0392 0.03432-0.0147 0.0147-0.0294 0.0294-0.0392 0.0441-0.0147 0.0147-0.02449 0.02941-0.03432 0.0441-0.0098 0.0147-0.01962 0.02941-0.02941 0.049-0.0098 0.01962-0.01962 0.0392-0.0294 0.0588-0.0049 0.0098-0.0098 0.0147-0.0098 0.02449l-4.4834 12.524c-0.1127 0.3136 0.048998 0.65659 0.3626 0.76929 0.068599 0.02449 0.1372 0.03428 0.2009 0.03428 0.245 0 0.4753-0.1519 0.5635-0.3969l1.2838-3.5917h5.2087c0.0147 0 0.02941-0.0049 0.049-0.0049l1.2838 3.5966c0.0882 0.245 0.3185 0.3969 0.5635 0.3969 0.0686 0 0.1372-0.0098 0.2009-0.03428 0.3136-0.1127 0.4753-0.4557 0.3626-0.76929zm-2.7636 8.1339 2.2001-6.1494 2.2001 6.1494zm11.672-13.671h-18.943c-1.3965 0-2.5284 1.1368-2.5284 2.5284v18.943c0 1.3965 1.1368 2.5284 2.5284 2.5284h18.943c1.3965 0 2.5284-1.1368 2.5284-2.5284v-18.943c0-1.3916-1.1368-2.5284-2.5284-2.5284zm1.3279 21.472c0 0.73009-0.5978 1.3279-1.3279 1.3279h-18.943c-0.73009 0-1.3279-0.5978-1.3279-1.3279v-18.943c0-0.73009 0.5978-1.3279 1.3279-1.3279h18.943c0.73009 0 1.3279 0.5978 1.3279 1.3279z" stroke-width=".049"></path>
</svg>
