<svg xmlns="http://www.w3.org/2000/svg" viewBox="0 0 8 8">
  <path d="M93.54 63.568a.3.3 0 0 0-.298.301v1.08H92.16a.3.3 0 0 0-.299.3.3.3 0 0 0 .3.3h1.081v4.096H92.16a.3.3 0 0 0-.299.3.3.3 0 0 0 .3.3h1.081v1.08a.3.3 0 0 0 .299.3.3.3 0 0 0 .301-.3v-1.08h4.096v1.08a.3.3 0 0 0 .298.3.3.3 0 0 0 .301-.3v-1.08h1.08a.3.3 0 0 0 .3-.3.3.3 0 0 0-.3-.3h-1.08v-4.096h1.08a.3.3 0 0 0 .3-.3.3.3 0 0 0-.3-.3h-1.08v-1.08a.3.3 0 0 0-.3-.3.3.3 0 0 0-.3.3v1.08h-4.095v-1.08a.3.3 0 0 0-.301-.3m.302 1.981h4.096v4.096h-4.096z" transform="translate(-88.785 -61.409) scale(.96763)"/>
</svg>
