<svg id="edit" viewBox="0 0 24 24">
  <title>edit</title>
  <path d="m 22.445446,1.5547006 c -2.065921,-2.07103497 -5.4256,-2.07103497 -7.49152,0 L 1.2186216,15.284892 C 1.1112343,15.392279 1.0447569,15.530349 1.0243025,15.67864 L 0.006683,23.216185 c -0.03068206,0.214776 0.04602293,0.429549 0.1943193,0.577845 0.12784157,0.127842 0.30681993,0.204546 0.48579832,0.204546 0.030686,0 0.061364,0 0.0920458,-0.0051 L 5.319781,23.379833 C 5.6981922,23.328696 5.9641027,22.980967 5.9129661,22.602556 5.8618291,22.224144 5.5141005,21.958234 5.1356893,22.00937 L 1.4947595,22.500282 2.205559,17.243435 7.7385444,22.77642 c 0.1278425,0.127843 0.306822,0.204544 0.4857948,0.204544 0.1789833,0 0.3579628,-0.0716 0.4857951,-0.204544 L 22.445446,9.0462202 C 23.447723,8.0439421 24,6.7143886 24,5.2979036 24,3.8814186 23.447723,2.5518646 22.445446,1.5547006 Z m -7.22561,1.68751 2.306263,2.306262 L 4.9925064,18.082066 2.6862435,15.775803 Z M 8.2294563,21.313903 5.9743301,19.058776 18.507923,6.5251836 20.763049,8.7803089 Z M 21.724418,7.7933722 16.206774,2.2757266 c 0.700572,-0.577844 1.575009,-0.894889 2.495468,-0.894889 1.048301,0 2.030124,0.409092 2.771606,1.14546 0.741482,0.736367 1.145461,1.723304 1.145461,2.771606 0,0.925574 -0.317053,1.794897 -0.894891,2.4954686 z"></path>
</svg>
