<svg id="picture" viewBox="0 0 24 24">
  <title>picture</title>
  <path d="m7.4393 9.6167c1.687 0 3.0552-1.3731 3.0552-3.0552s-1.3731-3.0552-3.0552-3.0552c-1.6821 0-3.0552 1.3731-3.0552 3.0552s1.3682 3.0552 3.0552 3.0552zm0-4.9089c1.0249 0 1.8537 0.83367 1.8537 1.8537 0 1.02-0.83367 1.8537-1.8537 1.8537-1.02 0-1.8537-0.83367-1.8537-1.8537 0-1.02 0.82877-1.8537 1.8537-1.8537zm-7.4393 16.762c0 1.3976 1.1377 2.5304 2.5304 2.5304h18.939c1.3976 0 2.5304-1.1377 2.5304-2.5304v-18.939c0-1.3976-1.1377-2.5304-2.5304-2.5304h-18.939c-1.3976 0-2.5304 1.1377-2.5304 2.5304v18.939zm21.47 1.329h-18.939c-0.73069 0-1.329-0.59828-1.329-1.329v-3.1631l4.5509-4.5509 3.8888 3.8888c0.23539 0.23539 0.613 0.23539 0.84839 0l7.0225-7.0225 5.2865 5.2865v5.5611c0 0.73069-0.59828 1.329-1.329 1.329zm-18.939-21.597h18.939c0.73069 0 1.329 0.59828 1.329 1.329v11.676l-4.8647-4.8598c-0.23539-0.23539-0.613-0.23539-0.84839 0l-7.0225 7.0225-3.8888-3.8888c-0.23539-0.23539-0.613-0.23539-0.84839 0l-4.1242 4.1242v-14.074c0-0.73069 0.59828-1.329 1.329-1.329z" stroke-width=".04904"></path>
</svg>
