<svg xmlns="http://www.w3.org/2000/svg" width="8mm" height="8mm" viewBox="0 0 8 8"><path d="M49.524 147.587v4.083" style="color:#000;fill:#fff;stroke-linecap:round;stroke-linejoin:round;-inkscape-stroke:none" transform="matrix(.96763 0 0 .96763 -43.92 -140.749)"/><path d="M49.523 147.287a.3.3 0 0 0-.298.3v4.083a.3.3 0 0 0 .298.3.3.3 0 0 0 .301-.3v-4.082a.3.3 0 0 0-.3-.3" style="color:#000;fill:#000;stroke-linecap:round;stroke-linejoin:round;-inkscape-stroke:none" transform="matrix(.96763 0 0 .96763 -43.92 -140.749)"/><path d="M51.314 149.99v1.68" style="color:#000;fill:#fff;stroke-linecap:round;stroke-linejoin:round;-inkscape-stroke:none" transform="matrix(.96763 0 0 .96763 -43.92 -140.749)"/><path d="M51.314 149.69a.3.3 0 0 0-.3.3v1.68a.3.3 0 0 0 .3.3.3.3 0 0 0 .3-.3v-1.68a.3.3 0 0 0-.3-.3" style="color:#000;fill:#000;stroke-linecap:round;stroke-linejoin:round;-inkscape-stroke:none" transform="matrix(.96763 0 0 .96763 -43.92 -140.749)"/><path d="M47.733 148.645v3.018" style="color:#000;fill:#fff;stroke-linecap:round;stroke-linejoin:round;-inkscape-stroke:none" transform="matrix(.96763 0 0 .96763 -43.92 -140.749)"/><path d="M47.732 148.346a.3.3 0 0 0-.298.299v3.02a.3.3 0 0 0 .298.298.3.3 0 0 0 .301-.299v-3.02a.3.3 0 0 0-.3-.298" style="color:#000;fill:#000;stroke-linecap:round;stroke-linejoin:round;-inkscape-stroke:none" transform="matrix(.96763 0 0 .96763 -43.92 -140.749)"/><path d="M46.502 145.713a.86.86 0 0 0-.856.855v6.045c0 .47.387.856.856.856h6.043c.469 0 .857-.387.857-.856v-6.045a.86.86 0 0 0-.857-.855zm0 .6h6.043c.147 0 .256.108.256.255v6.045a.25.25 0 0 1-.256.256h-6.043a.25.25 0 0 1-.256-.256v-6.045c0-.147.109-.255.256-.255" style="color:#000;fill:#000;stroke-linejoin:round;-inkscape-stroke:none" transform="matrix(.96763 0 0 .96763 -43.92 -140.749)"/></svg>