<?xml version="1.0" encoding="UTF-8" standalone="no"?>
<!-- Created with Inkscape (http://www.inkscape.org/) -->

<svg
   width="9.7502365mm"
   height="9.7502365mm"
   viewBox="0 0 9.7502365 9.7502365"
   version="1.1"
   id="svg1"
   sodipodi:docname="poll_flat.svg"
   inkscape:version="1.3.2 (091e20ef0f, 2023-11-25)"
   xmlns:inkscape="http://www.inkscape.org/namespaces/inkscape"
   xmlns:sodipodi="http://sodipodi.sourceforge.net/DTD/sodipodi-0.dtd"
   xmlns="http://www.w3.org/2000/svg"
   xmlns:svg="http://www.w3.org/2000/svg">
  <sodipodi:namedview
     id="namedview1"
     pagecolor="#ffffff"
     bordercolor="#000000"
     borderopacity="0.25"
     inkscape:showpageshadow="2"
     inkscape:pageopacity="0.0"
     inkscape:pagecheckerboard="0"
     inkscape:deskcolor="#d1d1d1"
     inkscape:document-units="mm"
     inkscape:zoom="29.09441"
     inkscape:cx="19.247684"
     inkscape:cy="21.688015"
     inkscape:window-width="2560"
     inkscape:window-height="1515"
     inkscape:window-x="0"
     inkscape:window-y="1415"
     inkscape:window-maximized="1"
     inkscape:current-layer="layer1" />
  <defs
     id="defs1" />
  <g
     inkscape:label="Capa 1"
     inkscape:groupmode="layer"
     id="layer1"
     transform="translate(-172.52985,-50.20407)">
    <path
       id="path6"
       style="color:#000000;fill:#000000;stroke-linecap:round;stroke-linejoin:round;-inkscape-stroke:none"
       d="M 174.48064 51.325965 C 174.02671 51.325965 173.65226 51.700407 173.65226 52.154339 L 173.65226 58.004111 C 173.65226 58.458042 174.02671 58.831967 174.48064 58.831967 L 180.32834 58.831967 C 180.78228 58.831967 181.15826 58.458042 181.15826 58.004111 L 181.15826 52.154339 C 181.15826 51.700407 180.78228 51.325965 180.32834 51.325965 L 174.48064 51.325965 z M 174.48064 51.908359 L 180.32834 51.908359 C 180.47068 51.908359 180.57639 52.012005 180.57639 52.154339 L 180.57639 58.004111 C 180.57639 58.146445 180.47068 58.252158 180.32834 58.252158 L 174.48064 58.252158 C 174.3383 58.252158 174.23259 58.146445 174.23259 58.004111 L 174.23259 52.154339 C 174.23259 52.012005 174.3383 51.908359 174.48064 51.908359 z M 177.40449 52.849387 C 177.24436 52.850059 177.1147 52.980711 177.1151 53.140842 L 177.1151 57.089955 C 177.1147 57.250085 177.24436 57.380221 177.40449 57.380893 C 177.56538 57.381293 177.69583 57.250842 177.69543 57.089955 L 177.69543 53.140842 C 177.69583 52.979954 177.56538 52.848986 177.40449 52.849387 z M 175.67178 53.873097 C 175.51165 53.873774 175.3825 54.003909 175.38291 54.164035 L 175.38291 57.083753 C 175.3825 57.24388 175.51165 57.374531 175.67178 57.375209 C 175.83267 57.375614 175.96312 57.244645 175.96272 57.083753 L 175.96272 54.164035 C 175.96312 54.003143 175.83267 53.872691 175.67178 53.873097 z M 179.13668 55.173792 C 178.97656 55.17447 178.84741 55.304604 178.84781 55.464731 L 178.84781 57.089955 C 178.84741 57.250081 178.97656 57.380215 179.13668 57.380893 C 179.29757 57.381293 179.42802 57.250842 179.42762 57.089955 L 179.42762 55.464731 C 179.42802 55.303843 179.29757 55.173392 179.13668 55.173792 z " />
  </g>
</svg>
