<svg xmlns="http://www.w3.org/2000/svg" viewBox="0 0 8 8">
  <path d="m36.744 166.81-.146-.004a2.857 2.857 0 0 0-2.854 2.854 2.86 2.86 0 0 0 2.854 2.856 2.84 2.84 0 0 0 1.836-.673l2.175 2.166a.277.277 0 0 0 .391-.001.277.277 0 0 0-.001-.39l-2.177-2.17c.394-.49.631-1.112.631-1.788a2.86 2.86 0 0 0-2.709-2.85m-.028.552a2.3 2.3 0 0 1 2.184 2.298 2.3 2.3 0 0 1-2.303 2.303 2.3 2.3 0 0 1-2.3-2.303 2.296 2.296 0 0 1 2.42-2.298m-.385.899a.277.277 0 0 0-.297.257.277.277 0 0 0 .257.296l1.658.118a.277.277 0 0 0 .296-.257.277.277 0 0 0-.256-.296zm3.699.52a.23.23 0 0 0-.249.213.23.23 0 0 0 .216.247l.543.039a.23.23 0 0 0 .247-.214.23.23 0 0 0-.214-.247zm-3.784.664a.277.277 0 0 0-.296.257.277.277 0 0 0 .257.296l1.971.14a.277.277 0 0 0 .296-.256.277.277 0 0 0-.256-.296zm3.84.319a.23.23 0 0 0-.245.214.23.23 0 0 0 .213.246l.417.03a.23.23 0 0 0 .246-.214.23.23 0 0 0-.214-.246zm-.25.961a.23.23 0 0 0-.246.214.23.23 0 0 0 .213.248l.598.043a.23.23 0 0 0 .247-.216.23.23 0 0 0-.214-.246zm-3.674-.096a.277.277 0 0 0-.297.257.277.277 0 0 0 .258.295l1.527.109a.277.277 0 0 0 .296-.255.277.277 0 0 0-.257-.297z" transform="rotate(-4.078 -2431.692 587.61) scale(1.04862)"/>
</svg>
