<svg xmlns="http://www.w3.org/2000/svg" fill="none" viewBox="0 0 27 27">
  <g class="fills">
    <rect width="27" height="27" class="frame-background" rx="0" ry="0"/>
  </g>
  <g class="frame-children">
    <g class="feather feather-settings">
      <circle cx="13.5" cy="13.5" r="3" class="fills"/>
      <g stroke-linejoin="round" class="strokes">
        <circle cx="13.5" cy="13.5" r="3" stroke="currentColor" stroke-width="2" class="stroke-shape"/>
      </g>
      <path d="M20.9 16.5a1.65 1.65 0 0 0 .33 1.82l.06.06a1.998 1.998 0 0 1 0 2.83 1.998 1.998 0 0 1-2.83 0l-.06-.06a1.65 1.65 0 0 0-1.82-.33 1.65 1.65 0 0 0-1 1.51v.17a2 2 0 1 1-4 0v-.09a1.65 1.65 0 0 0-1.08-1.51 1.65 1.65 0 0 0-1.82.33l-.06.06a1.998 1.998 0 0 1-2.83 0 1.998 1.998 0 0 1 0-2.83l.06-.06a1.65 1.65 0 0 0 .33-1.82 1.65 1.65 0 0 0-1.51-1H4.5a2 2 0 1 1 0-4h.09A1.65 1.65 0 0 0 6.1 10.5a1.65 1.65 0 0 0-.33-1.82l-.06-.06a1.998 1.998 0 0 1 0-2.83 1.998 1.998 0 0 1 2.83 0l.06.06a1.65 1.65 0 0 0 1.82.33h.08a1.65 1.65 0 0 0 1-1.51V4.5a2 2 0 1 1 4 0v.09a1.65 1.65 0 0 0 1 1.51 1.65 1.65 0 0 0 1.82-.33l.06-.06a1.998 1.998 0 0 1 2.83 0 1.998 1.998 0 0 1 0 2.83l-.06.06a1.65 1.65 0 0 0-.33 1.82v.08a1.65 1.65 0 0 0 1.51 1h.17a2 2 0 1 1 0 4h-.09a1.65 1.65 0 0 0-1.51 1Z" class="fills"/>
      <g stroke-linejoin="round" class="strokes">
        <path stroke="currentColor" stroke-width="2" d="M20.9 16.5a1.65 1.65 0 0 0 .33 1.82l.06.06a1.998 1.998 0 0 1 0 2.83 1.998 1.998 0 0 1-2.83 0l-.06-.06a1.65 1.65 0 0 0-1.82-.33 1.65 1.65 0 0 0-1 1.51v.17a2 2 0 1 1-4 0v-.09a1.65 1.65 0 0 0-1.08-1.51 1.65 1.65 0 0 0-1.82.33l-.06.06a1.998 1.998 0 0 1-2.83 0 1.998 1.998 0 0 1 0-2.83l.06-.06a1.65 1.65 0 0 0 .33-1.82 1.65 1.65 0 0 0-1.51-1H4.5a2 2 0 1 1 0-4h.09A1.65 1.65 0 0 0 6.1 10.5a1.65 1.65 0 0 0-.33-1.82l-.06-.06a1.998 1.998 0 0 1 0-2.83 1.998 1.998 0 0 1 2.83 0l.06.06a1.65 1.65 0 0 0 1.82.33h.08a1.65 1.65 0 0 0 1-1.51V4.5a2 2 0 1 1 4 0v.09a1.65 1.65 0 0 0 1 1.51 1.65 1.65 0 0 0 1.82-.33l.06-.06a1.998 1.998 0 0 1 2.83 0 1.998 1.998 0 0 1 0 2.83l-.06.06a1.65 1.65 0 0 0-.33 1.82v.08a1.65 1.65 0 0 0 1.51 1h.17a2 2 0 1 1 0 4h-.09a1.65 1.65 0 0 0-1.51 1Z" class="stroke-shape"/>
      </g>
    </g>
  </g>
</svg>
