<?xml version="1.0" encoding="UTF-8" standalone="no"?>
<!-- Created with Inkscape (http://www.inkscape.org/) -->

<svg
   width="8mm"
   height="8mm"
   viewBox="0 0 8 8"
   version="1.1"
   id="svg1"
   sodipodi:docname="templates_flat.svg"
   inkscape:version="1.3.2 (091e20ef0f, 2023-11-25)"
   xmlns:inkscape="http://www.inkscape.org/namespaces/inkscape"
   xmlns:sodipodi="http://sodipodi.sourceforge.net/DTD/sodipodi-0.dtd"
   xmlns="http://www.w3.org/2000/svg"
   xmlns:svg="http://www.w3.org/2000/svg">
  <sodipodi:namedview
     id="namedview1"
     pagecolor="#ffffff"
     bordercolor="#000000"
     borderopacity="0.25"
     inkscape:showpageshadow="2"
     inkscape:pageopacity="0.0"
     inkscape:pagecheckerboard="0"
     inkscape:deskcolor="#d1d1d1"
     inkscape:document-units="mm"
     inkscape:zoom="24.097897"
     inkscape:cx="21.972872"
     inkscape:cy="21.661641"
     inkscape:window-width="2560"
     inkscape:window-height="1515"
     inkscape:window-x="0"
     inkscape:window-y="1415"
     inkscape:window-maximized="1"
     inkscape:current-layer="layer1" />
  <defs
     id="defs1" />
  <g
     inkscape:label="Capa 1"
     inkscape:groupmode="layer"
     id="layer1"
     transform="translate(-168.45396,-66.060051)">
    <path
       id="rect487"
       style="color:#000000;fill:#000000;stroke-linejoin:round;-inkscape-stroke:none"
       d="m 169.41125,66.30009 c -0.39095,0 -0.7152,0.324251 -0.7152,0.715202 v 6.085934 c 0,0.390951 0.32425,0.714685 0.7152,0.714685 h 4.02353 a 0.292,0.292 0 0 0 0.0269,0.0041 0.292,0.292 0 0 0 0.0258,-0.0041 h 2.00969 c 0.39095,0 0.71469,-0.323734 0.71469,-0.714685 v -6.085934 c 0,-0.390951 -0.32374,-0.715202 -0.71469,-0.715202 z m 0,0.580327 h 1.30277 v 6.353617 h -1.30277 c -0.0794,0 -0.13281,-0.05346 -0.13281,-0.132808 v -6.085934 c 0,-0.07935 0.0535,-0.134874 0.13281,-0.134875 z m 1.88464,0 h 4.20129 c 0.0794,0 0.13488,0.05552 0.13488,0.134875 v 2.949174 h -4.33617 z m 0,3.667993 h 1.87327 v 2.685624 h -1.87327 z m 2.45721,0 h 1.87896 v 2.552816 c 0,0.07935 -0.0555,0.132808 -0.13488,0.132808 h -1.74408 z" />
  </g>
</svg>
