<svg xmlns="http://www.w3.org/2000/svg" width="8mm" height="8mm" viewBox="0 0 8 8"><path d="M172.796 126.113h9.058" style="fill:#f1f0fc;fill-opacity:1;stroke:#c4c1e3;stroke-width:.355733;stroke-linecap:round;stroke-linejoin:round;stroke-dasharray:none;stroke-opacity:1" transform="translate(-183.907 -69.254)"/><path d="M46.836 69.674a.745.745 0 0 0-.739.74v6.289c0 .404.335.739.739.739h6.289a.743.743 0 0 0 .738-.739v-6.289a.745.745 0 0 0-.738-.74zm0 .602h6.289c.082 0 .139.056.139.138v6.289a.133.133 0 0 1-.139.139h-6.289a.133.133 0 0 1-.139-.139v-6.289c0-.082.057-.138.139-.138m3.162 1.082a.25.25 0 0 0-.232.156l-1.58 3.9a.25.25 0 0 0 .138.326.25.25 0 0 0 .326-.138l.457-1.13h1.77l.433 1.079a.25.25 0 0 0 .327.138.25.25 0 0 0 .138-.324l-1.547-3.85a.25.25 0 0 0-.23-.157m-.002.917.68 1.698H49.31z" style="color:#000;fill:#000;stroke-linecap:round;stroke-linejoin:round;-inkscape-stroke:none" transform="matrix(.96763 0 0 .96763 -44.362 -67.177)"/></svg>