<svg xmlns="http://www.w3.org/2000/svg" viewBox="0 0 8 8">
  <path fill="#f1f0fc" stroke="#c4c1e3" stroke-linecap="round" stroke-linejoin="round" stroke-width=".356" d="M-11.111 56.859h9.058"/>
  <path d="M46.836 69.674a.745.745 0 0 0-.739.74v6.289c0 .404.335.739.739.739h6.289a.743.743 0 0 0 .738-.739v-6.289a.745.745 0 0 0-.738-.74zm0 .602h6.289c.082 0 .139.056.139.138v6.289a.133.133 0 0 1-.139.139h-6.289a.133.133 0 0 1-.139-.139v-6.289c0-.082.057-.138.139-.138m3.162 1.082a.25.25 0 0 0-.232.156l-1.58 3.9a.25.25 0 0 0 .138.326.25.25 0 0 0 .326-.138l.457-1.13h1.77l.433 1.079a.25.25 0 0 0 .327.138.25.25 0 0 0 .138-.324l-1.547-3.85a.25.25 0 0 0-.23-.157m-.002.917.68 1.698H49.31z" transform="translate(-44.362 -67.177) scale(.96763)"/>
</svg>
