<svg xmlns="http://www.w3.org/2000/svg" width="8mm" height="8mm" viewBox="0 0 8 8"><path d="M88.473 85.635a4.164 4.164 0 0 0-4.158 4.158 4.16 4.16 0 0 0 4.158 4.156 4.16 4.16 0 0 0 4.156-4.156 4.16 4.16 0 0 0-4.156-4.158m0 .642a3.51 3.51 0 0 1 3.513 3.516 3.51 3.51 0 0 1-3.513 3.514 3.51 3.51 0 0 1-3.516-3.514 3.51 3.51 0 0 1 3.516-3.516m0 .608a.25.25 0 1 0 0 .5 2.406 2.406 0 0 1 2.408 2.408.25.25 0 1 0 .5 0q-.002-.441-.125-.844a2.91 2.91 0 0 0-2.783-2.064m-2.238 1.157a.25.25 0 0 0-.16.104 2.912 2.912 0 0 0 3.424 4.368.25.25 0 0 0-.179-.467q-.397.152-.847.154a2.405 2.405 0 0 1-2.408-2.408c0-.507.154-.975.421-1.363a.25.25 0 0 0-.251-.388m2.228.143a.25.25 0 0 0-.235.196c-.068.308-.167.573-.312.767-.146.195-.331.33-.64.4-.268.06-.26.443.01.49.271.05.467.156.62.335s.267.44.319.81c.041.276.435.287.492.014.123-.627.465-.992.978-1.168a.25.25 0 0 0-.017-.478c-.508-.135-.78-.55-.967-1.188a.25.25 0 0 0-.248-.178m.027.848c.163.326.398.572.696.756-.3.181-.529.433-.698.758-.143-.395-.32-.574-.695-.77.364-.175.531-.391.697-.744m2.392 1.665a.25.25 0 0 0-.24.14 2.4 2.4 0 0 1-.411.6.25.25 0 0 0 .011.353.25.25 0 0 0 .352-.012c.2-.214.369-.455.498-.722a.25.25 0 0 0-.21-.36" style="color:#000;fill:#000;stroke-linejoin:round;-inkscape-stroke:none" transform="matrix(.96216 0 0 .96216 -81.125 -82.395)"/></svg>