<svg id="user" viewBox="0 0 24 24">
  <title>user</title>
  <path d="m21.382 23.389v-3.3655c0-4.1646-2.7301-7.7038-6.4877-8.9249 1.8068-1.0176 3.0329-2.9535 3.0329-5.1723 0-3.2662-2.6606-5.9268-5.9268-5.9268-3.2662 0-5.9268 2.6606-5.9268 5.9268 0 2.2188 1.2261 4.1547 3.0329 5.1723-3.7626 1.2211-6.4877 4.7603-6.4877 8.9249v3.3655c0 0.33754 0.27301 0.61055 0.61055 0.61055h17.552c0.32761-5e-3 0.60062-0.27301 0.60062-0.61055zm-14.097-17.463c0-2.5961 2.1146-4.7107 4.7107-4.7107 2.5961 0 4.7107 2.1146 4.7107 4.7107 0 2.5961-2.1146 4.7107-4.7107 4.7107-2.5961 0-4.7107-2.1146-4.7107-4.7107zm12.881 16.852h-16.341v-2.7599c0-4.5022 3.6633-8.1704 8.1704-8.1704 4.5071 0 8.1704 3.6633 8.1704 8.1704z"></path>
</svg>
