<svg xmlns="http://www.w3.org/2000/svg" viewBox="0 0 8 8">
  <path d="M50.371 28.523a.17.17 0 0 0-.136.063c-.204.252-.417.407-.665.45a.17.17 0 0 0-.137.193.17.17 0 0 0 .194.136c.231-.04.393-.223.57-.375v1.953a.17.17 0 0 0 .168.168.17.17 0 0 0 .168-.168V28.69a.17.17 0 0 0-.111-.156.2.2 0 0 0-.05-.01m-1.63.903a.14.14 0 0 0-.14.138V30h-.415a.14.14 0 0 0-.139.14.14.14 0 0 0 .139.14h.416v.435a.14.14 0 0 0 .138.138.14.14 0 0 0 .14-.138v-.436h.415a.14.14 0 0 0 .14-.138.14.14 0 0 0-.14-.141h-.414v-.436a.14.14 0 0 0-.14-.138" color="#000" style="-inkscape-stroke:none" transform="translate(-81.482 -47.665) scale(1.73275)"/>
</svg>
