<svg xmlns:xlink="http://www.w3.org/1999/xlink" width="961.6209737140539" xmlns="http://www.w3.org/2000/svg" id="screenshot" version="1.1" viewBox="-18.022480257427134 -18.01130510807255 961.6209737140539 749.3120766792031" height="749.3120766792031" style="-webkit-print-color-adjust: exact;"><g id="shape-b3334cf2-eb8a-11eb-b5c2-a314b8068663"><g id="shape-b3334cf3-eb8a-11eb-b5c2-a314b8068663"><path d="M391.97308629042755,77.66135003751697C391.97308629042755,77.66135003751697,419.03101190477264,0.09529660972702914,472.2449322796524,0.09529660972702914C525.4588526545313,0.09529660972702914,571.457326198919,14.52619027071023,571.457326198919,14.52619027071023C571.457326198919,14.52619027071023,613.0701787374896,-9.407703358876006,690.0612334751331,14.52619027071023C732.1426768520014,27.60787589707934,778.7220283596694,-22.179286168433464,865.035819114567,14.52619027071023C913.498838078578,35.13539021195493,948.0134576652263,145.3061640733813,907.8775346706138,207.08842755947035C897.8049057186868,222.5934850291178,825.9138352904538,292.7359083727588,796.0381087979858,335.61357422761193C772.7860021039469,368.9850158186382,719.824951838129,384.1253550513875,704.9430925630222,363.5734306957688C702.6289601219673,360.3776018699059,704.9430925630222,383.82631043444417,697.7276457325302,411.8267313746851C694.7157900441844,423.5146043824552,678.7870978024885,433.4730718661617,667.9639275567506,411.8267313746851C657.1407573110118,390.1803908832085,658.0426881648236,363.5734306957688,658.0426881648236,363.5734306957688C658.0426881648236,363.5734306957688,610.2689230658139,451.26396602440127,624.6712465737978,551.6260137154704C626.3119566034202,563.0592402971529,642.1180222125204,668.2735626381195,595.3584938249242,668.2735626381195C560.2758182138546,668.2735624397383,552.9677436957818,535.8422237737691,552.9677436957818,461.8838937612245C552.9677436957818,387.9255637486799,544.399400584573,380.2591514912815,544.399400584573,380.2591514912815C544.399400584573,380.2591514912815,533.3497460619815,412.466767605777,522.3020946661904,425.3556941818588C519.5963021047569,428.51245217019823,509.224097285924,437.9827261352193,502.00865045543196,435.7278990006903C494.6912134668996,433.44119989078354,490.78763197012495,428.27395519948095,488.93065307516554,420.8460399128003C486.67582598526815,411.8267313746851,485.5840016887669,405.9161642010836,495.2441690518458,380.2591514912815C502.00865045543196,362.2929630989497,509.5475769844161,355.4584010378853,515.0866478356984,349.5935024616906C522.7530600930963,341.4761247773863,496.5970653325626,368.5340503917323,484.42099880610704,349.5935024616906C472.2449322796524,330.65295453164845,443.8341103845896,272.0274490339002,431.6580438581341,272.0274490339002C419.48197733167854,272.0274490339002,382.05184689850057,222.8722175011717,382.05184689850057,187.69691420252275C382.05184689850057,152.5216109038738,387.91439744827494,119.60113473975343,375.7383309218194,105.17024107876887C363.56226439536476,90.73934741778476,391.97308629042755,77.66135003751697,391.97308629042755,77.66135003751697Z" style="fill: none; stroke-width: 15; stroke: rgb(115, 107, 219); stroke-opacity: 1;"/></g><g id="shape-b3334cf4-eb8a-11eb-b5c2-a314b8068663"><path d="M534.9291266594732,230.08766433166375C534.9291266594732,230.08766433166375,523.8406997175907,329.72028354029317,510.5769935668136,351.8483295962192C509.7898707386471,353.1614987697362,512.5819152292243,348.0641080174987,514.074441908755,347.83556856160203C531.2703994844151,345.2024802124938,545.3013314875325,362.22053441505204,545.3013314875325,380.71011691818785" style="fill: none; stroke-width: 15; stroke: rgb(115, 107, 219); stroke-opacity: 1;"/></g><g id="shape-b3334cf5-eb8a-11eb-b5c2-a314b8068663"><path d="M674.6688297061119,230.53862975856964C674.6688297061119,230.53862975856964,692.2070432238202,335.2085366082392,692.2070432238202,335.2085366082392C678.2032963152778,326.0887459883252,655.7878610628895,352.29929502312507,658.0426881974186,368.5340503917323" style="fill: none; stroke-width: 15; stroke: rgb(115, 107, 219); stroke-opacity: 1;"/></g><g id="shape-b3334cf6-eb8a-11eb-b5c2-a314b8068663"><path d="M567.8496027836723,15.879086551427918C567.8496027836723,15.879086551427918,556.4284158906435,31.574678611396394,538.9594195080722,45.84798023459916C525.3724223216282,56.94943705264541,505.65495339502786,73.44933295021747,490.6030388874551,73.44933295021747C484.79800195059306,73.44933295021747,487.77308738914553,104.97340728472773,482.6951554901316,141.4233517477228C476.4309607129421,186.38842003300488,482.6951554901316,194.72076027422736,490.6030388874551,208.49994934568485C519.2765624127428,258.4624838329778,527.3514382044332,287.3602735486952,527.3514382044332,287.3602735486952" style="fill: none; stroke-width: 15; stroke: rgb(115, 107, 219); stroke-opacity: 1;"/></g><g id="shape-b3337400-eb8a-11eb-b5c2-a314b8068663"><path d="M689.5598723035787,15.840537721669534C689.5598723035787,15.840537721669534,704.2433366668965,75.98102921544341,734.0120770490757,86.4669179017078C742.321250027519,89.39378208951985,728.4679431507748,124.9143262900443,734.0120770490757,164.46651392011063C738.9726967450392,199.85587406870172,731.41343674563,218.87334094783228,721.8360105226202,233.87142292157432C676.3467015042311,305.10688458497134,704.2433366668965,367.07334700678985,704.2433366668965,367.07334700678985" style="fill: none; stroke-width: 15; stroke: rgb(115, 107, 219); stroke-opacity: 1;"/></g><g id="shape-b3337401-eb8a-11eb-b5c2-a314b8068663"><path d="M396.2603326874196,71.3478340608367C396.2603326874196,71.3478340608367,302.06144042687083,108.32699906710877,261.0466117392639,79.91617717204599C220.03178305165738,51.505355276982755,188.93262723358112,20.38874082048551,102.84655822992181,65.48528351106143C16.760489226263417,110.58182620163734,0.0841303093238821,206.18649670565856,0.0841303093238821,206.18649670565856C0.0841303093238821,206.18649670565856,33.403742440394126,250.64133213959985,59.127455123351865,309.0066140401718C83.09470260549915,363.3866032924316,117.0139897207714,402.356457409664,206.05969855368085,437.9827261352193C206.05969855368085,437.9827261352193,190.29712544057702,476.9395056525632,206.05969855368085,492.09857736390995C214.31439786646433,500.0372291271856,233.11711554086378,499.0198726687154,243.01811561284285,484.4321651065129C256.48564524771973,464.5896863226594,248.84415712116424,470.8063769631335,247.49415603043644,461.4329283343186C245.32510259022683,446.3725620982791,254.54431202771002,446.38195721133934,261.0466117392639,419.70288219122676C269.40671136840456,385.4012143082273,265.55373577086857,335.16260880070604,265.55373577086857,335.16260880070604C265.55373577086857,335.16260880070604,270.4710785131633,409.2565807580627,276.0030890982439,436.45741484997734C283.11567413620514,471.4299158252966,291.24434275101885,519.8329511186143,291.24434275101885,558.3904951190566C291.24434275101885,626.9372400087332,296.65289158894484,686.9156417871991,316.03352492484737,704.954258863429C335.414158260749,722.9928759396589,347.8752061429436,707.3072661525443,350.6530138760927,696.8368811791261C364.6250983740679,644.1719305051547,355.260666967587,611.1475705026764,358.2431778105188,573.5708229879092C361.73988116990586,529.515739599839,383.010890042387,491.8545980216204,388.8112328061866,424.31890562343915C393.1813540665853,373.4358497070011,396.2603326874196,331.55488538545933,396.2603326874196,331.55488538545933L388.8112328061866,424.31890562343915M396.2603326874196,402.356457409664C396.2603326874196,402.356457409664,409.33099237907436,441.1394841235601,399.86603191270297,455.11941235763834C391.5242517954789,467.44038163775303,387.16743418639135,463.55870509765055,388.8112328061866,476.32652697191725C392.3216536826426,503.59290379263484,417.894528039124,499.3140242262466,423.30307687705,496.6082316329689C443.86267777291323,486.3226603258977,443.1344226161127,456.6535586560458,434.5708869560631,424.31890562343915C426.007351296013,391.98425259083115,427.6248620125125,379.4967145047044,430.9705012294289,378.4552897836588C436.08579322564856,376.86301069412957,444.035847422434,379.3572206374697,434.5708869560631,355.4560530114659C425.1059264896926,331.55488538545933,413.3874040075193,266.61586391103083,423.30307687705,266.61586391103083" style="fill: none; stroke-width: 15; stroke: rgb(115, 107, 219); stroke-opacity: 1;"/></g><g id="shape-b3337402-eb8a-11eb-b5c2-a314b8068663"><path d="M252.17380394964266,76.30845375680019C252.17380394964266,76.30845375680019,240.899668276998,129.97333955858494,203.4695378438205,118.24823845903529C190.12883936550952,114.06922451544142,208.88609303568865,134.45389056139174,211.58691552812434,171.9131242608214C215.8008962482436,230.35920468335007,201.21471070929147,234.7830979539999,211.58691552812434,264.36103677650226C220.52510711098375,289.8496664697286,235.48808315412953,318.025922578287,235.48808315412953,318.025922578287" style="fill: none; stroke-width: 15; stroke: rgb(115, 107, 219); stroke-opacity: 1;"/></g><g id="shape-b3337403-eb8a-11eb-b5c2-a314b8068663"><path d="M250.36994224201908,280.59579214510904C250.36994224201908,280.59579214510904,223.76298205457988,326.29362207155964,223.76298205457988,406.8661116787216C223.76298205457988,406.8661116787216,232.02659731917402,388.82749459342085,245.8602879729615,388.8274946024917C257.13442364560615,388.8274946024917,265.2518013299091,401.9054919827581,265.2518013299091,401.9054919827581" style="fill: none; stroke-width: 15; stroke: rgb(115, 107, 219); stroke-opacity: 1;"/></g><g id="shape-b3337404-eb8a-11eb-b5c2-a314b8068663"><path d="M230.5274634581665,396.94487228679463C230.5274634581665,396.94487228679463,203.92050327072639,435.04417722441394,203.92050327072639,445.64913839261726" style="fill: none; stroke-width: 15; stroke: rgb(115, 107, 219); stroke-opacity: 1;"/></g><g id="shape-b333c220-eb8a-11eb-b5c2-a314b8068663"><path d="M395.58080970567335,405.51321539800483C395.58080970567335,405.51321539800483,400.84207301957395,381.6516061427801,429.4032167236055,379.3572206374711" style="fill: none; stroke-width: 15; stroke: rgb(115, 107, 219); stroke-opacity: 1;"/></g><g id="shape-b333c221-eb8a-11eb-b5c2-a314b8068663"><g id="shape-b333c222-eb8a-11eb-b5c2-a314b8068663"><path d="M568.0392249266583,148.4860622267165C564.4068635261328,153.00036030451793,559.9125596248668,137.222633113121,546.0972286118217,137.222633113121C529.4375647431493,137.222633113121,523.6796288847986,153.94692332014574,520.4982329111795,148.4860622267165C520.4982329111795,131.01373182786438,529.4375647431493,124.58166973352809,546.0972286118217,124.58166973352809C559.9125596248668,124.58166973352809,568.0392249266583,131.01373182786438,568.0392249266583,148.4860622267165Z" style="fill: rgb(115, 107, 219); fill-opacity: 1;"/></g><g id="shape-b333c223-eb8a-11eb-b5c2-a314b8068663"><path d="M697.0511975921718,145.57911692085872C692.0075053175683,150.223269650573,688.21385755965,134.88648929869896,673.957020730104,134.88648929869896C656.764952788591,134.88648929869896,651.2307367162998,149.8039509202913,647.5399407224131,145.57911692085872C647.5399407224131,127.54841151878418,654.0591602271561,120.95403110955749,671.2512281686691,120.95403110955749C685.5080649982151,120.95403110955749,694.3454050307373,127.09744609187919,697.0511975921718,145.57911692085872Z" style="fill: rgb(115, 107, 219); fill-opacity: 1;"/></g><g id="shape-b333c224-eb8a-11eb-b5c2-a314b8068663"><path d="M234.1351869560558,217.66237985473435C239.84345985978416,224.58509474144648,243.47096246042065,204.40636980595218,259.341780817841,204.40636980595218C278.48012060178826,204.40636980595218,284.3940970335793,222.31444425860445,288.74947365658954,217.66237985473435C288.74947365658954,197.59046252035068,281.6368785901291,190.40270654940423,262.49853880618093,190.40270654940423C246.627720448761,190.40270654940423,234.1351869560558,197.59046252035068,234.1351869560558,217.66237985473435Z" style="fill: rgb(115, 107, 219); fill-opacity: 1;"/></g></g></g></svg>