<svg xmlns="http://www.w3.org/2000/svg" viewBox="0 0 64 64" role="img" aria-label="Tapiz">
	<circle cx="32" cy="32" r="30" fill="#1e254b" />
	<g transform="translate(21.1 10.95) scale(1.25)" fill="#f8f8fc">
		<path
			d="M240 415c-5-14-13-37-16-50-4-18-13-25-29-25-30 0-41-36-15-50 18-9 18-13 5-51-20-57-19-95 5-119 42-42 112-10 139 63 19 49 12 53-20 14-56-68-101-29-65 56 12 29 20 36 48 39 25 2 34 8 36 25 3 17-3 24-22 29-22 5-24 11-23 47 2 32-2 42-15 45-12 2-21-6-28-23z"
			transform="translate(-16.569643 43.827372) scale(.1 -.1)"
		/>
	</g>
</svg>
