<svg xmlns="http://www.w3.org/2000/svg" viewBox="284 329 80 37">
  <path d="M312.743 365.378c-.985-1.27-.321-2.088.103-3.587.682-2.411 1.268-4.289 2.277-7.293.332-.986.706-2.147.832-2.58.126-.432.326-1.096.445-1.474.285-.911.343-1.187.266-1.28-.033-.04-.085-.071-.115-.071s-.23.334-.443.741c-.83 1.584-1.105 1.978-2.131 3.058-.881.926-2.048 1.463-3.114 1.551-1.822.197-3.602-1.185-3.909-2.763l-.058-.337-.142.205c-.409.592-1.874 1.74-2.841 2.224-1.445.725-2.869.856-4.245.392-1.259-.425-2.323-1.448-3.149-3.03-.227-.433-.286-.643-.387-1.373-.102-.73-.285-.813-.371-.167-.055.414-.345 1.288-.608 1.833-.78 1.614-2.563 2.993-4.262 3.297-1.799.321-3.476-.066-4.677-1.078-2.112-1.916-1.836-5.414-1.316-7.38.243-.895.862-2.784 1.277-3.9.214-.577.383-1.055.375-1.063-1.056-.13-2.152-.59-2.475-1.426-.178-.487-.035-1.276.379-2.085.744-1.339 1.556-1.143 2.475-1.115l1.088.033c.601-1.974 1.102-4.469 2.078-6.244.14-.237.424-.534.601-.627 1.322-.54 3.402.077 3.492 1.098-.091 1.153-.335 1.669-.652 2.944-.094.378-.658 2.035-.765 2.246l-.095.187c.799.049 1.608.085 2.401.2 1.422.25 1.888.736 1.67 2.246-.085.547-.364 1.196-.647 1.507-.467.513-.926.613-3.03.66-2.068.046-1.981-.007-2.477 1.514-.743 2.276-1.478 4.9-1.61 5.749-.012.597.064 1.26.464 1.698.636.627 1.809.302 2.405.09 1.097-.398 2.111-1.188 3.364-2.62.407-.465.546-.667.715-1.032.116-.249.238-.541.272-.65.164-.522.835-2.113 1.246-2.956 1.243-2.549 2.404-3.93 4.323-5.141 1.783-1.027 3.498-1.535 5.548-1.316.979.113 2.354.538 2.865.885l.201.136.136-.288c.339-.717 1.112-1.07 2.225-1.016 2.844.223 1.224 3.699.627 5.249-.481 1.286-1.451 4.201-1.769 5.319-.425 1.494-.613 2.539-.519 2.89.083.309.195.391.529.391.928 0 2.275-.981 3.88-2.826 1.568-1.802 2.222-2.82 2.742-4.275.078-.217.273-.858.434-1.426.649-2.284 1.109-3.517 1.539-4.121.581-.818 1.402-1.213 2.544-1.225.831-.024 1.546.468 1.631 1.191l.031.294a11.888 11.888 0 0 1 2.187-1.051c1.491-.491 3.095-1.24 4.873-.479 1.779.761 2.283 2.677 2.007 4.728-.176 1.261-.715 3.045-1.684 5.571-.757 1.971-.879 2.571-.624 3.063.562.864 2.413-.445 2.814-.745.889-.673 1.18-.995 2.513-2.778 1.574-2.105 1.867-2.709 2.444-5.037.423-1.276.708-3.125 1.46-4.199.331-.439.944-.739 1.724-.845.961-.061 2.062.433 2.134 1.294-.609 3.236-1.744 5.797-2.605 9.205-.469 1.865-.56 2.634-.341 2.876.108.121.196.098.562-.142.698-.459 1.405-1.273 3.348-3.854 1.774-2.355 2.443-3.066 3.823-5.392 1.38-2.326 3.408-3.684 5.644-3.861 2.308-.142 4.42-.165 7.151.053 2.731.217 2.448 2.219 1.426 3.726-1.022 1.507-1.748 2.078-3.668 4.16-1.8 1.951-4.287 4.376-4.261 4.403 1.698.156 3.436-.126 5.182.07.445.053.974.242 1.266.45.804.897.216 2.791-.449 3.545a2.035 2.035 0 0 1-1.024.641c-3.63-.093-6.38.026-10.262.007-1.025-.05-2.006-.361-2.005-1.497.005-.508.313-1.084 1.199-2.236.954-1.241 3.712-4.315 7.185-8.008l1.043-1.109-1.998.002c-1.33.001-1.944.233-2.737 1.026-.714.714-1.498 1.672-2.938 3.804-1.601 2.37-3.038 3.908-4.164 5.24-1.875 2.219-2.924 3.769-4.773 3.883-1.848.115-3.28-.96-3.734-2.356-.214-.661-.251-1.579-.104-2.549.059-.388.094-.718.078-.734-.077-.078-.212.191-.587 1.169-.443 1.157-.967 1.994-1.708 2.728-.939.977-2.388 1.405-3.523 1.498-2.251.078-4.194-.747-4.782-2.881-.349-1.328-.051-2.866 1.011-5.217 1.451-3.215 1.73-4.012 1.73-4.945.056-.752-.785-.608-1.31-.503-1.056.225-2.215.924-3.268 1.971-1.174 1.168-2.108 2.533-2.719 3.973-1.232 3.365-2.17 6.545-3.231 9.937-.509 1.629-1.221 4.108-1.496 5.208-.486 1.474-.748 3.191-1.731 4.27-.726.67-1.999.643-2.751-.146Zm-6.9-17.781c.933-1.15 2.041-3.145 2.763-4.971.389-.986.718-1.906.718-2.01-1.213-.133-2.922-.096-4.015.296-1.569.567-2.805 1.682-3.616 3.263-.449 1.003-1.904 5.15-.349 5.646 1.809.298 3.412-.905 4.499-2.224Zm37.138-13.537c-.905-.196-1.808-1.213-1.936-2.179-.036-.273.061-.728.223-1.046.298-.587.899-1.217 1.395-1.463.54-.268 1.324-.425 1.765-.355.321.051.744.242.965.437.662.584.699 2.117.08 3.378-.48.978-1.446 1.455-2.492 1.228Z"/>
</svg>
